<svg width="22" height="23" viewBox="0 0 22 23" fill="none" xmlns="http://www.w3.org/2000/svg">
<path d="M18.3297 8.31632L10.9978 12.8987L3.66597 8.31632V6.48336L10.9978 11.0658L18.3297 6.48336M18.3297 4.65039H3.66597C2.64868 4.65039 1.83301 5.46606 1.83301 6.48336V17.4812C1.83301 17.9673 2.02612 18.4335 2.36987 18.7773C2.71362 19.121 3.17984 19.3141 3.66597 19.3141H18.3297C18.8158 19.3141 19.2821 19.121 19.6258 18.7773C19.9696 18.4335 20.1627 17.9673 20.1627 17.4812V6.48336C20.1627 5.99722 19.9696 5.531 19.6258 5.18725C19.2821 4.84351 18.8158 4.65039 18.3297 4.65039Z" fill="white"/>
</svg>
