<svg width="18" height="17" viewBox="0 0 18 17" fill="none" xmlns="http://www.w3.org/2000/svg">
<g clip-path="url(#clip0_166_485)">
<mask id="mask0_166_485" style="mask-type:luminance" maskUnits="userSpaceOnUse" x="0" y="0" width="18" height="17">
<path d="M0.818359 0.776367H17.0418V16.9998H0.818359V0.776367Z" fill="white"/>
</mask>
<g mask="url(#mask0_166_485)">
<path fill-rule="evenodd" clip-rule="evenodd" d="M0.818359 8.93339C0.818359 12.9669 3.74737 16.3198 7.57814 16.9998V11.1411H5.5502V8.8881H7.57814V7.08527C7.57814 5.05733 8.8848 3.93115 10.7329 3.93115C11.3183 3.93115 11.9497 4.02106 12.5351 4.11097V6.18419H11.4988C10.5071 6.18419 10.282 6.67968 10.282 7.31104V8.8881H12.4452L12.0849 11.1411H10.282V16.9998C14.1128 16.3198 17.0418 12.9669 17.0418 8.93339C17.0418 4.44693 13.3915 0.776367 8.93009 0.776367C4.46864 0.776367 0.818359 4.44693 0.818359 8.93339Z" fill="#AF885A"/>
</g>
</g>
<defs>
<clipPath id="clip0_166_485">
<rect width="16.2235" height="16.2235" fill="white" transform="translate(0.818359 0.776367)"/>
</clipPath>
</defs>
</svg>
