<svg width="1440" height="229" viewBox="0 0 1440 229" fill="none" xmlns="http://www.w3.org/2000/svg">
<path d="M1697.98 -24.613C1665.6 -21.8435 1652.49 -16.4543 1633.21 2.61392C1618.22 17.453 1611 25.069 1585.4 28.6244C1507.97 39.4216 1421.09 8.1903 1348.14 -8.12713C1264.65 -26.8211 1191 -28.0375 1105.57 -15.2193C987.609 2.48287 871.441 32.4793 751.774 42.6216C695.393 47.3933 643.821 42.1911 590.49 28.0818C533.417 12.9807 481.321 10.8287 421.422 8.30252C211.56 -0.511138 3.28809 -22.4237 -207.266 -25.53" stroke="url(#paint0_linear_141_523)" stroke-width="1.23211" stroke-miterlimit="10"/>
<path d="M1697.21 -35.1479C1663.49 -32.8837 1651.61 -27.8313 1633.83 -6.98541C1620.04 9.20103 1614.54 16.7609 1587.83 20.2789C1509.69 30.5709 1422.75 -0.51087 1349.19 -16.9593C1265.57 -35.6532 1192.31 -36.7572 1106.75 -24.0513C987.909 -6.40531 870.749 23.1419 750.258 33.4339C694.383 38.2056 643.016 33.2467 590.191 19.0251C533.454 3.77429 481.545 1.90308 421.908 -0.566989C326.474 -4.53407 231.919 -16.6037 136.597 -21.6187C22.899 -27.6068 -92.5579 -33.1457 -206.462 -34.7924" stroke="url(#paint1_linear_141_523)" stroke-width="1.23211" stroke-miterlimit="10"/>
<path d="M1697.1 -45.4962C1662.82 -43.6062 1651.27 -38.4415 1633.53 -17.2026C1619.76 -0.698092 1614.54 7.01152 1587.39 10.3985C1508.79 20.2227 1422.38 -10.5971 1348.46 -27.1765C1264.69 -45.9827 1191.15 -46.9932 1105.41 -34.1938C987.647 -16.6226 871.666 12.9247 752.261 23.1418C695.861 27.9697 644.158 22.3372 590.565 8.86406C533.061 -5.60082 480.591 -8.0334 420.486 -10.3725C325.613 -14.0776 231.825 -27.3824 137.083 -32.3225C23.1984 -38.2544 -92.2398 -42.8202 -206.349 -44.9722" stroke="url(#paint2_linear_141_523)" stroke-width="1.23211" stroke-miterlimit="10"/>
<path d="M1697.1 -55.7695C1664.09 -53.9169 1648.59 -48.4715 1630.56 -27.476C1616.54 -11.1585 1607.31 -3.11208 1581.17 0.125207C1502.45 9.85578 1416.45 -21.0575 1342.51 -37.8614C1259.34 -56.7612 1185.57 -58.2396 1100.43 -45.0284C988.208 -27.6257 878.14 2.29584 764.143 12.1387C705.105 17.2285 649.921 9.9868 592.941 -1.48405C531.845 -13.7783 475.258 -17.2588 412.458 -19.8599C319.082 -23.7147 227.297 -39.4894 134.089 -44.86C21.2899 -51.3532 -93.3061 -52.7567 -206.405 -55.3016" stroke="url(#paint3_linear_141_523)" stroke-width="1.23211" stroke-miterlimit="10"/>
<path d="M1697.1 -65.4439C1663.83 -63.5914 1645.81 -57.4723 1625.6 -37.1504C1609.82 -21.2821 1597.64 -12.693 1571.31 -9.54925C1492.14 -0.118077 1406.83 -31.0127 1332.63 -48.1535C1251.08 -66.9971 1178.08 -69.4297 1094.59 -55.6385C990.248 -38.4229 888.507 -8.20195 782.201 1.32279C719.457 6.93659 658.117 -1.57767 596.721 -11.196C530.366 -21.6002 467.006 -25.1369 399.715 -28.4677C308.491 -32.9962 219.513 -51.5404 128.551 -57.8279C17.8841 -65.4813 -95.327 -62.8054 -206.368 -64.9761" stroke="url(#paint4_linear_141_523)" stroke-width="1.23211" stroke-miterlimit="10"/>
<path d="M1774.83 227.708C1632.95 214.142 1530.07 114.965 1391.33 94.9609C1356.1 89.8711 1320.38 92.1541 1285.27 85.0245C1264.71 80.8516 1245.13 74.3209 1224.87 69.4182C1167.12 55.4398 1105.44 54.0177 1049.57 73.3666C983.773 96.1586 930.124 139.404 858.155 151.38C776.681 164.928 681.302 139.31 602.578 124.939C514.554 108.883 430.553 96.6077 339.947 96.7761C131.208 97.2065 -77.363 95.0733 -285.915 93.8944" stroke="url(#paint5_linear_141_523)" stroke-width="1.23211" stroke-miterlimit="10"/>
<path d="M1774.34 225.894C1633.85 210.493 1530.71 115.545 1393.11 94.6992C1357.82 89.3474 1321.91 91.5741 1286.71 84.4446C1265.83 80.2156 1245.96 73.6287 1225.39 68.6699C1167.51 54.7102 1106.68 53.4752 1050.65 72.6931C984.278 95.4664 929.263 138.244 856.939 150.425C775.951 164.067 680.778 138.468 602.504 124.134C514.536 108.023 430.628 95.8968 340.059 96.1213C131.451 96.6827 -77.0078 94.0068 -285.41 92.9963" stroke="url(#paint6_linear_141_523)" stroke-width="1.23211" stroke-miterlimit="10"/>
<path d="M1773.18 222.469C1633.98 205.983 1530.48 113.468 1393.43 93.9133C1360.16 89.179 1326.63 90.9567 1293.43 84.6131C1271.65 80.4589 1251.03 73.7411 1229.66 68.5577C1167.83 53.5875 1105.48 52.8016 1045.94 74.0217C981.658 96.9447 925.539 137.832 854.937 149.321C776.606 162.065 686.579 138.618 610.812 124.677C522.825 108.49 438.188 95.0174 347.488 95.2793C136.803 95.8781 -73.7332 92.6034 -284.213 91.6678" stroke="url(#paint7_linear_141_523)" stroke-width="1.23211" stroke-miterlimit="10"/>
<path d="M1771.2 217.08C1635.23 200.425 1532.71 112.7 1398.69 93.5012C1365.23 88.7108 1331.53 90.3949 1298.15 84.0326C1275.82 79.7849 1254.66 72.9548 1232.76 67.6778C1170.17 52.5954 1108.1 51.9591 1047.62 72.9173C981.883 95.6906 923.65 136.073 851.924 147.637C774.192 160.174 685.419 137.214 610.232 123.292C523.031 107.124 439.274 93.9878 349.359 94.2123C138.749 94.755 -71.7677 90.6757 -282.172 89.7962" stroke="url(#paint8_linear_141_523)" stroke-width="1.23211" stroke-miterlimit="10"/>
<path d="M1768.77 210.586C1636.53 194.381 1535.46 111.484 1405.03 93.0335C1371.35 88.2618 1337.48 89.8337 1303.87 83.4527C1280.95 79.0926 1259.19 72.1315 1236.69 66.7423C1173.16 51.5289 1111.07 50.9862 1049.45 71.645C982.033 94.2499 921.479 134.127 848.368 145.71C771.272 157.929 684.034 135.624 609.502 121.701C523.293 105.59 440.677 92.8277 351.754 92.9961C141.163 93.3891 -69.3354 88.4677 -279.703 87.5882" stroke="url(#paint9_linear_141_523)" stroke-width="1.23211" stroke-miterlimit="10"/>
<path d="M1765.6 202.185C1638.04 186.971 1539.07 109.632 1413.15 92.3974C1379.13 87.738 1345.09 89.2163 1311.23 82.723C1287.59 78.1946 1265.08 71.1025 1241.84 65.5822C1177.09 50.163 1114.76 49.7139 1051.64 70.0171C982.07 92.3974 918.784 131.694 843.878 143.24C767.549 155.029 682.313 133.565 608.566 119.662C523.705 103.644 442.567 91.3495 354.992 91.4057C144.419 91.5366 -66.1169 85.6609 -276.465 84.7066" stroke="url(#paint10_linear_141_523)" stroke-width="1.23211" stroke-miterlimit="10"/>
<path d="M1761.92 192.454C1642.42 178.925 1547.92 112.72 1431.29 92.7531C1395.88 86.6902 1359.35 89.1603 1323.76 82.7044C1298.89 78.1947 1275.17 70.8967 1250.84 64.9648C1188.68 49.8076 1127.39 47.2065 1065.42 64.6654C988.433 86.3721 920.001 127.671 838.807 140.246C762.758 152.035 678.365 130.758 604.918 116.78C519.944 100.612 439.928 89.6468 352.297 89.5158C143.876 89.179 -64.5263 82.405 -272.723 81.3571" stroke="url(#paint11_linear_141_523)" stroke-width="1.23211" stroke-miterlimit="10"/>
<path d="M1758.38 183.023C1643.86 170.991 1552.02 109.744 1440.06 91.7614C1404.34 86.0353 1367.77 88.3183 1331.96 81.825C1306.32 77.1842 1281.83 69.7179 1256.75 63.6363C1193.3 48.2545 1131.49 45.616 1068.02 62.7942C988.676 84.2576 917.287 124.976 833.997 137.458C758.754 148.741 676.587 128.419 603.982 114.46C520.542 98.4044 442.174 87.944 356.114 87.6446C147.637 86.9335 -60.8212 79.2613 -269.074 78.0824" stroke="url(#paint12_linear_141_523)" stroke-width="1.23211" stroke-miterlimit="10"/>
<path d="M1753.97 171.122C1644.67 160.867 1555.42 104.579 1448.09 89.9461C1411.9 85.0247 1375.58 86.8585 1339.52 80.0846C1312.83 75.0696 1287.24 67.2664 1261.02 61.0538C1194.29 45.2603 1130.2 43.9691 1063.94 62.2701C984.952 84.0703 911.168 122.076 827.991 133.958C753.084 144.662 672.526 125.032 600.389 110.904C517.567 94.6617 440.246 85.6983 354.861 85.0995C148.348 83.6399 -58.2203 75.1631 -264.546 73.8158" stroke="url(#paint13_linear_141_523)" stroke-width="1.23211" stroke-miterlimit="10"/>
<path d="M1749.27 158.303C1646.52 150.145 1560.81 100.369 1459.73 88.3367C1423.03 83.9579 1386.71 85.4549 1350.28 78.5873C1322.6 73.3852 1295.99 65.4137 1268.79 58.9765C1200.37 42.8088 1135.21 41.5737 1066.99 59.4256C984.952 80.889 907.613 118.239 821.647 129.935C747.77 140.002 670.281 121.495 599.21 107.48C518.409 91.5365 443.353 83.0597 360.026 82.2363C153.401 80.1966 -53.3173 70.6158 -259.755 69.1" stroke="url(#paint14_linear_141_523)" stroke-width="1.23211" stroke-miterlimit="10"/>
<path d="M1744.37 144.681C1647.58 138.562 1564.71 94.8114 1469.1 86.1288C1431.85 82.7418 1395.36 83.378 1358.61 76.2485C1329.73 70.6534 1301.92 62.2889 1273.41 55.7582C1205.14 40.0957 1141.02 39.1413 1072.75 55.6646C986.412 76.5666 904.956 113.693 815.154 125.388C744.757 134.557 672.601 118.726 604.861 105.103C526.231 89.2912 453.008 80.0846 371.74 79.1303C162.888 76.6789 -46.0383 65.732 -254.74 63.9917" stroke="url(#paint15_linear_141_523)" stroke-width="1.23211" stroke-miterlimit="10"/>
<path d="M1739.67 131.376C1649.46 127.24 1570.06 90.3953 1480.78 84.0517C1443.02 81.3758 1406.38 81.4319 1369.25 74.2275C1339.39 68.4453 1310.59 59.8749 1281.1 53.1384C1211.21 37.1765 1146.01 36.166 1075.88 52.2963C986.486 72.8615 901.55 109.37 808.941 120.859C739.723 129.449 670.019 114.778 603.458 101.136C526.979 85.4738 456.002 76.9408 376.923 75.7807C167.978 72.7118 -41.0421 60.6983 -249.856 58.7709" stroke="url(#paint16_linear_141_523)" stroke-width="1.23211" stroke-miterlimit="10"/>
<path d="M1734.58 116.63C1650.62 114.441 1574.17 84.8373 1490.79 81.3381C1420.04 78.3815 1360.53 66.6299 1293.11 50.8926C1221.4 34.1635 1154.75 31.9367 1082.16 47.6179C988.358 67.9024 898.78 104.392 801.999 115.788C733.529 123.853 665.453 109.894 599.79 96.1024C528.514 81.1135 462.402 73.1607 388.506 71.9443C177.409 68.4825 -33.6881 54.9719 -244.71 52.8199" stroke="url(#paint17_linear_141_523)" stroke-width="1.23211" stroke-miterlimit="10"/>
<path d="M1729.84 102.521C1652.41 102.034 1579.68 80.3278 1502.64 78.5875C1430.54 76.9595 1369.44 63.4864 1300.95 47.5806C1227.56 30.5334 1159.84 28.2318 1085.36 43.5574C988.358 63.5238 895.393 99.0591 795.693 110.549C728.627 118.258 662.646 105.216 598.424 91.4244C529.262 76.5665 465.359 69.2686 393.577 67.8838C182.405 63.7858 -28.729 49.2086 -239.863 46.8695" stroke="url(#paint18_linear_141_523)" stroke-width="1.23211" stroke-miterlimit="10"/>
<path d="M1724.87 87.1954C1654.23 88.2994 1585.57 76.0052 1515.1 75.2193C1441.63 74.396 1378.91 59.7252 1309.19 43.6136C1234.04 26.2483 1165.17 23.853 1088.75 38.7857C988.451 58.3966 891.857 93.2583 789.031 104.523C723.35 111.709 659.764 99.8264 596.983 86.0165C530.048 71.2896 468.446 64.7028 398.91 63.131C187.645 58.3405 -23.4894 42.6219 -234.774 40.1144" stroke="url(#paint19_linear_141_523)" stroke-width="1.23211" stroke-miterlimit="10"/>
<path d="M1720.38 72.7865C1654.79 75.1068 1589.54 70.2602 1523.95 71.7011C1452.28 73.273 1388.51 56.0947 1320.82 40.4322C1239.2 21.5512 1165.38 19.5676 1082.28 35.7728C982.632 55.1965 885.438 87.9811 783.174 98.3854C717.811 105.047 656.34 94.1937 593.896 80.1592C527.391 65.2265 466.762 59.9496 397.769 58.0783C188.431 52.3709 -20.7387 36.1096 -230.189 33.4337" stroke="url(#paint20_linear_141_523)" stroke-width="1.23211" stroke-miterlimit="10"/>
<path d="M1715.81 57.3862C1655.87 60.7358 1595.62 65.6011 1535.55 67.3788C1462.76 69.5307 1397.25 51.3233 1328.52 35.4737C1245.19 16.2745 1170.21 14.2161 1085.2 30.0283C982.557 49.1152 882.126 81.2822 777.017 91.5181C713.039 97.7494 653.664 87.944 592.679 73.8721C528.252 59.0142 469.663 54.3921 402.728 52.3524C193.277 45.9714 -15.8548 28.681 -225.492 25.8928" stroke="url(#paint21_linear_141_523)" stroke-width="1.23211" stroke-miterlimit="10"/>
<path d="M1711.54 42.154C1657.88 46.1211 1606.14 57.9661 1552.62 61.9332C1475.73 67.6406 1403.67 45.4287 1331.21 28.9428C1248.82 10.1928 1175.26 8.65831 1091.24 23.3103C984.409 41.9294 880.068 73.8906 771.048 84.3884C710.588 90.208 654.094 81.8996 596.478 68.333C530.441 52.7827 470.467 48.5162 401.736 45.99C194.082 38.3927 -13.1976 20.915 -221.151 17.9959" stroke="url(#paint22_linear_141_523)" stroke-width="1.23211" stroke-miterlimit="10"/>
<path d="M1708.19 29.2232C1656.87 33.6768 1611.75 52.1275 1561.04 57.0676C1484.26 64.5527 1409.05 40.0766 1336.75 23.6656C1253.2 4.70969 1178.89 3.13785 1093.56 17.4905C984.428 35.8476 877.617 67.3222 766.445 77.689C707.032 83.228 651.868 75.668 595.355 62.0452C530.947 46.495 472.526 42.7899 405.404 40.1514C197.638 32.0302 -9.54827 13.804 -217.689 10.81" stroke="url(#paint23_linear_141_523)" stroke-width="1.23211" stroke-miterlimit="10"/>
<path d="M1704.73 14.7398C1654.3 19.605 1618.52 44.9607 1569.7 50.8926C1493.26 60.1928 1414.37 33.3215 1342.34 17.0228C1257.61 -2.15771 1182.61 -3.7296 1095.97 10.3236C984.447 28.4375 875.053 59.332 761.598 69.624C703.327 74.901 649.472 68.127 594.139 54.3919C531.414 38.823 474.528 35.7166 409.034 32.9846C201.174 24.3206 -5.86202 5.3086 -214.19 2.23972" stroke="url(#paint24_linear_141_523)" stroke-width="1.23211" stroke-miterlimit="10"/>
<path d="M1701.85 0.836338C1672.04 3.83036 1653.7 9.63122 1630.2 23.3476C1611.77 34.1074 1598.67 41.3305 1575.07 44.362C1497.81 54.261 1415.04 24.8446 1342.23 8.63948C1259.71 -9.73634 1186.36 -11.2521 1102 1.95905C987.179 19.9419 874.398 50.9675 757.706 60.9788C699.716 65.9563 646.815 59.8186 591.781 45.8964C532.911 31.0012 479.356 28.0071 417.791 25.4996C207.911 17.0041 -0.791223 -3.52375 -211.215 -6.68618" stroke="url(#paint25_linear_141_523)" stroke-width="1.23211" stroke-miterlimit="10"/>
<path d="M1699.7 -11.4766C1668.8 -8.46384 1653.35 -2.79392 1631.88 13.6545C1615.14 26.5101 1605.14 34.0139 1580.71 37.3635C1503.59 47.9736 1418.22 17.4345 1345.58 1.15446C1262.53 -17.4646 1188.77 -18.7744 1103.85 -5.78786C987.366 12.0266 872.807 42.5655 754.544 52.6142C697.395 57.4608 645.243 51.8284 591.089 37.8126C533.229 22.8425 480.516 20.2788 419.906 17.7526C210.025 9.01376 1.51057 -12.1689 -209.006 -15.3314" stroke="url(#paint26_linear_141_523)" stroke-width="1.23211" stroke-miterlimit="10"/>
<defs>
<linearGradient id="paint0_linear_141_523" x1="745.394" y1="-26.4845" x2="745.394" y2="45.2722" gradientUnits="userSpaceOnUse">
<stop stop-color="#333333"/>
<stop offset="1" stop-color="#808080"/>
</linearGradient>
<linearGradient id="paint1_linear_141_523" x1="745.395" y1="-36.0877" x2="745.395" y2="36.1311" gradientUnits="userSpaceOnUse">
<stop stop-color="#333333"/>
<stop offset="1" stop-color="#808080"/>
</linearGradient>
<linearGradient id="paint2_linear_141_523" x1="745.388" y1="-46.4281" x2="745.388" y2="25.79" gradientUnits="userSpaceOnUse">
<stop stop-color="#333333"/>
<stop offset="1" stop-color="#808080"/>
</linearGradient>
<linearGradient id="paint3_linear_141_523" x1="745.387" y1="-56.7077" x2="745.387" y2="14.7429" gradientUnits="userSpaceOnUse">
<stop stop-color="#333333"/>
<stop offset="1" stop-color="#808080"/>
</linearGradient>
<linearGradient id="paint4_linear_141_523" x1="745.388" y1="-66.3824" x2="745.388" y2="4.02976" gradientUnits="userSpaceOnUse">
<stop stop-color="#333333"/>
<stop offset="1" stop-color="#808080"/>
</linearGradient>
<linearGradient id="paint5_linear_141_523" x1="744.509" y1="57.9498" x2="744.509" y2="228.642" gradientUnits="userSpaceOnUse">
<stop stop-color="#333333"/>
<stop offset="1" stop-color="#808080"/>
</linearGradient>
<linearGradient id="paint6_linear_141_523" x1="744.521" y1="57.29" x2="744.521" y2="226.817" gradientUnits="userSpaceOnUse">
<stop stop-color="#333333"/>
<stop offset="1" stop-color="#808080"/>
</linearGradient>
<linearGradient id="paint7_linear_141_523" x1="744.539" y1="56.7417" x2="744.539" y2="223.391" gradientUnits="userSpaceOnUse">
<stop stop-color="#333333"/>
<stop offset="1" stop-color="#808080"/>
</linearGradient>
<linearGradient id="paint8_linear_141_523" x1="744.565" y1="55.8041" x2="744.565" y2="218.012" gradientUnits="userSpaceOnUse">
<stop stop-color="#333333"/>
<stop offset="1" stop-color="#808080"/>
</linearGradient>
<linearGradient id="paint9_linear_141_523" x1="744.593" y1="54.7593" x2="744.593" y2="211.519" gradientUnits="userSpaceOnUse">
<stop stop-color="#333333"/>
<stop offset="1" stop-color="#808080"/>
</linearGradient>
<linearGradient id="paint10_linear_141_523" x1="744.628" y1="53.4319" x2="744.628" y2="203.122" gradientUnits="userSpaceOnUse">
<stop stop-color="#333333"/>
<stop offset="1" stop-color="#808080"/>
</linearGradient>
<linearGradient id="paint11_linear_141_523" x1="744.668" y1="51.6053" x2="744.668" y2="193.375" gradientUnits="userSpaceOnUse">
<stop stop-color="#333333"/>
<stop offset="1" stop-color="#808080"/>
</linearGradient>
<linearGradient id="paint12_linear_141_523" x1="744.705" y1="50.0181" x2="744.705" y2="183.946" gradientUnits="userSpaceOnUse">
<stop stop-color="#333333"/>
<stop offset="1" stop-color="#808080"/>
</linearGradient>
<linearGradient id="paint13_linear_141_523" x1="744.751" y1="47.9602" x2="744.751" y2="172.062" gradientUnits="userSpaceOnUse">
<stop stop-color="#333333"/>
<stop offset="1" stop-color="#808080"/>
</linearGradient>
<linearGradient id="paint14_linear_141_523" x1="744.798" y1="45.5144" x2="744.798" y2="159.238" gradientUnits="userSpaceOnUse">
<stop stop-color="#333333"/>
<stop offset="1" stop-color="#808080"/>
</linearGradient>
<linearGradient id="paint15_linear_141_523" x1="744.847" y1="42.6979" x2="744.847" y2="145.621" gradientUnits="userSpaceOnUse">
<stop stop-color="#333333"/>
<stop offset="1" stop-color="#808080"/>
</linearGradient>
<linearGradient id="paint16_linear_141_523" x1="744.893" y1="39.7586" x2="744.893" y2="132.319" gradientUnits="userSpaceOnUse">
<stop stop-color="#333333"/>
<stop offset="1" stop-color="#808080"/>
</linearGradient>
<linearGradient id="paint17_linear_141_523" x1="744.943" y1="36.0851" x2="744.943" y2="119.113" gradientUnits="userSpaceOnUse">
<stop stop-color="#333333"/>
<stop offset="1" stop-color="#808080"/>
</linearGradient>
<linearGradient id="paint18_linear_141_523" x1="744.988" y1="32.3938" x2="744.988" y2="113.789" gradientUnits="userSpaceOnUse">
<stop stop-color="#333333"/>
<stop offset="1" stop-color="#808080"/>
</linearGradient>
<linearGradient id="paint19_linear_141_523" x1="745.05" y1="28" x2="745.05" y2="107.622" gradientUnits="userSpaceOnUse">
<stop stop-color="#333333"/>
<stop offset="1" stop-color="#808080"/>
</linearGradient>
<linearGradient id="paint20_linear_141_523" x1="745.111" y1="23.8663" x2="745.111" y2="101.31" gradientUnits="userSpaceOnUse">
<stop stop-color="#333333"/>
<stop offset="1" stop-color="#808080"/>
</linearGradient>
<linearGradient id="paint21_linear_141_523" x1="745.174" y1="18.535" x2="745.174" y2="94.3607" gradientUnits="userSpaceOnUse">
<stop stop-color="#333333"/>
<stop offset="1" stop-color="#808080"/>
</linearGradient>
<linearGradient id="paint22_linear_141_523" x1="745.231" y1="12.5257" x2="745.231" y2="87.1928" gradientUnits="userSpaceOnUse">
<stop stop-color="#333333"/>
<stop offset="1" stop-color="#808080"/>
</linearGradient>
<linearGradient id="paint23_linear_141_523" x1="745.276" y1="6.99827" x2="745.276" y2="80.4839" gradientUnits="userSpaceOnUse">
<stop stop-color="#333333"/>
<stop offset="1" stop-color="#808080"/>
</linearGradient>
<linearGradient id="paint24_linear_141_523" x1="745.321" y1="0.0861121" x2="745.321" y2="72.3577" gradientUnits="userSpaceOnUse">
<stop stop-color="#333333"/>
<stop offset="1" stop-color="#808080"/>
</linearGradient>
<linearGradient id="paint25_linear_141_523" x1="745.356" y1="-7.69331" x2="745.356" y2="63.6156" gradientUnits="userSpaceOnUse">
<stop stop-color="#333333"/>
<stop offset="1" stop-color="#808080"/>
</linearGradient>
<linearGradient id="paint26_linear_141_523" x1="745.379" y1="-16.2601" x2="745.379" y2="55.2656" gradientUnits="userSpaceOnUse">
<stop stop-color="#333333"/>
<stop offset="1" stop-color="#808080"/>
</linearGradient>
</defs>
</svg>
