<svg width="25" height="24" viewBox="0 0 25 24" fill="none" xmlns="http://www.w3.org/2000/svg">
<path d="M15.7477 16.11L17.4277 14.43C17.654 14.2066 17.9403 14.0536 18.2518 13.9897C18.5634 13.9258 18.8867 13.9537 19.1827 14.07L21.2302 14.8875C21.5293 15.0089 21.7858 15.2162 21.9673 15.4831C22.1488 15.75 22.2473 16.0647 22.2502 16.3875V20.1375C22.2485 20.3571 22.2023 20.5741 22.1145 20.7753C22.0267 20.9766 21.8991 21.158 21.7393 21.3087C21.5796 21.4594 21.391 21.5761 21.1849 21.652C20.9788 21.7278 20.7595 21.7612 20.5402 21.75C6.19272 20.8575 3.29772 8.70753 2.75022 4.05753C2.72481 3.82918 2.74803 3.59804 2.81836 3.37931C2.88869 3.16058 3.00453 2.95922 3.15827 2.78848C3.31201 2.61774 3.50016 2.48148 3.71034 2.38868C3.92052 2.29587 4.14797 2.24862 4.37772 2.25003H8.00022C8.32348 2.25099 8.63906 2.34863 8.90637 2.5304C9.17368 2.71217 9.3805 2.96976 9.50022 3.27003L10.3177 5.31753C10.4379 5.61233 10.4686 5.93601 10.4059 6.24814C10.3432 6.56027 10.1899 6.847 9.96522 7.07253L8.28522 8.75253C8.28522 8.75253 9.25272 15.3 15.7477 16.11Z" fill="#AF885A"/>
</svg>
