<svg width="430" height="122" viewBox="0 0 430 122" fill="none" xmlns="http://www.w3.org/2000/svg">
<path d="M-298.495 135.099C-281.282 133.626 -274.307 130.761 -264.059 120.622C-256.09 112.732 -252.249 108.683 -238.638 106.792C-197.467 101.051 -151.271 117.657 -112.487 126.333C-68.0923 136.273 -28.9309 136.919 16.4889 130.104C79.2111 120.692 140.978 104.742 204.606 99.3498C234.584 96.8126 262.005 99.5786 290.361 107.081C320.707 115.11 348.407 116.254 380.255 117.597C491.84 122.284 602.579 133.935 714.531 135.586" stroke="url(#paint0_linear_166_23)" stroke-width="0.655117" stroke-miterlimit="10"/>
<path d="M-298.087 140.7C-280.158 139.496 -273.84 136.81 -264.387 125.726C-257.055 117.12 -254.129 113.1 -239.931 111.23C-198.382 105.757 -152.156 122.284 -113.044 131.029C-68.5799 140.969 -29.6273 141.556 15.8622 134.8C79.0519 125.418 141.346 109.707 205.411 104.235C235.121 101.698 262.433 104.335 290.52 111.896C320.687 120.005 348.287 121 379.997 122.313C430.74 124.423 481.015 130.84 531.698 133.507C592.151 136.691 653.54 139.636 714.103 140.511" stroke="url(#paint1_linear_166_23)" stroke-width="0.655117" stroke-miterlimit="10"/>
<path d="M-298.027 146.202C-279.799 145.198 -273.661 142.451 -264.228 131.159C-256.906 122.383 -254.13 118.284 -239.693 116.483C-197.905 111.259 -151.957 127.646 -112.657 136.462C-68.1124 146.461 -29.0106 146.998 16.5784 140.193C79.191 130.85 140.859 115.14 204.347 109.707C234.335 107.14 261.825 110.135 290.321 117.299C320.896 124.99 348.795 126.283 380.753 127.527C431.197 129.497 481.064 136.571 531.439 139.198C591.992 142.352 653.371 144.78 714.044 145.924" stroke="url(#paint2_linear_166_23)" stroke-width="0.655117" stroke-miterlimit="10"/>
<path d="M-298.027 151.665C-280.476 150.68 -272.238 147.784 -262.646 136.621C-255.194 127.945 -250.289 123.667 -236.389 121.945C-194.532 116.772 -148.803 133.208 -109.493 142.143C-65.2668 152.192 -26.0456 152.978 19.225 145.954C78.8926 136.701 137.416 120.791 198.029 115.558C229.42 112.851 258.761 116.702 289.057 122.801C321.543 129.338 351.63 131.188 385.021 132.571C434.669 134.621 483.472 143.009 533.031 145.864C593.007 149.317 653.938 150.063 714.073 151.416" stroke="url(#paint3_linear_166_23)" stroke-width="0.655117" stroke-miterlimit="10"/>
<path d="M-298.027 156.809C-280.337 155.824 -270.755 152.57 -260.01 141.765C-251.622 133.328 -245.145 128.761 -231.146 127.089C-189.049 122.075 -143.689 138.501 -104.239 147.615C-60.879 157.634 -22.0658 158.928 22.3292 151.595C77.808 142.441 131.904 126.373 188.427 121.309C221.788 118.324 254.403 122.851 287.048 127.965C322.329 133.497 356.018 135.377 391.797 137.148C440.301 139.556 487.611 149.416 535.976 152.759C594.818 156.829 655.013 155.406 714.053 156.56" stroke="url(#paint4_linear_166_23)" stroke-width="0.655117" stroke-miterlimit="10"/>
<path d="M-339.357 0.938385C-263.92 8.15184 -209.217 60.8847 -135.451 71.5208C-116.716 74.2271 -97.7221 73.0132 -79.0567 76.804C-68.1222 79.0228 -57.7149 82.4952 -46.9395 85.102C-16.2351 92.5343 16.5586 93.2905 46.2681 83.0026C81.2507 70.884 109.776 47.8905 148.042 41.5228C191.363 34.3192 242.076 47.9402 283.933 55.5815C330.736 64.1183 375.4 70.6452 423.576 70.5557C534.563 70.3268 645.461 71.4611 756.349 72.0879" stroke="url(#paint5_linear_166_23)" stroke-width="0.655117" stroke-miterlimit="10"/>
<path d="M-339.099 1.90348C-264.397 10.092 -209.555 60.5762 -136.396 71.6601C-117.631 74.5056 -98.5381 73.3217 -79.823 77.1125C-68.7192 79.3611 -58.1528 82.8633 -47.2182 85.5C-16.4442 92.9224 15.9019 93.579 45.6909 83.3608C80.982 71.2521 110.234 48.5074 148.689 42.0302C191.751 34.7769 242.354 48.388 283.973 56.0094C330.746 64.576 375.36 71.0233 423.516 70.9039C534.434 70.6054 645.272 72.0282 756.081 72.5655" stroke="url(#paint6_linear_166_23)" stroke-width="0.655117" stroke-miterlimit="10"/>
<path d="M-338.482 3.72424C-264.467 12.4898 -209.436 61.6806 -136.565 72.078C-118.875 74.5952 -101.045 73.65 -83.3948 77.0229C-71.8134 79.2317 -60.849 82.8036 -49.4866 85.5597C-16.6132 93.5193 16.5387 93.9372 48.1983 82.6544C82.3751 70.4661 112.214 48.7263 149.754 42.6172C191.403 35.8415 239.27 48.3084 279.556 55.7208C326.339 64.3272 371.341 71.4909 419.566 71.3516C531.588 71.0332 643.531 72.7744 755.444 73.2719" stroke="url(#paint7_linear_166_23)" stroke-width="0.655117" stroke-miterlimit="10"/>
<path d="M-337.427 6.58972C-265.134 15.4449 -210.62 62.0886 -139.361 72.2968C-121.572 74.8439 -103.652 73.9485 -85.9023 77.3313C-74.0324 79.5899 -62.7795 83.2215 -51.1385 86.0273C-17.8572 94.0466 15.1456 94.3849 47.3026 83.2414C82.2555 71.1327 113.219 49.6615 151.355 43.5126C192.686 36.8464 239.887 49.0546 279.864 56.4571C326.229 65.0535 370.763 72.0381 418.571 71.9187C530.553 71.6302 642.486 73.7992 754.359 74.2668" stroke="url(#paint8_linear_166_23)" stroke-width="0.655117" stroke-miterlimit="10"/>
<path d="M-336.134 10.0422C-265.82 18.6586 -212.083 62.7353 -142.734 72.5456C-124.825 75.0827 -106.816 74.247 -88.9466 77.6398C-76.7584 79.958 -65.187 83.6593 -53.2276 86.5247C-19.4488 94.6138 13.5638 94.9023 46.3278 83.918C82.1761 71.8988 114.373 50.6963 153.246 44.5375C194.238 38.0404 240.623 49.9003 280.252 57.3028C326.09 65.8694 370.017 72.655 417.298 72.5655C529.27 72.3565 641.193 74.9733 753.046 75.4409" stroke="url(#paint9_linear_166_23)" stroke-width="0.655117" stroke-miterlimit="10"/>
<path d="M-334.452 14.5096C-266.626 22.5986 -214.003 63.7203 -147.052 72.8839C-128.964 75.3613 -110.866 74.5753 -92.8568 78.0278C-80.2905 80.4356 -68.3212 84.2065 -55.9638 87.1416C-21.5383 95.3401 11.6037 95.5789 45.1637 84.7836C82.1562 72.8839 115.806 51.9897 155.634 45.8508C196.218 39.5826 241.538 50.9948 280.75 58.3873C325.871 66.9042 369.012 73.4411 415.576 73.4112C527.539 73.3416 639.482 76.4657 751.325 76.9732" stroke="url(#paint10_linear_166_23)" stroke-width="0.655117" stroke-miterlimit="10"/>
<path d="M-332.492 19.6834C-268.954 26.8769 -218.709 62.0786 -156.693 72.6948C-137.869 75.9185 -118.447 74.6051 -99.5229 78.0377C-86.2999 80.4356 -73.6839 84.3159 -60.7494 87.47C-27.6969 95.5291 4.88791 96.9121 37.8409 87.6292C78.7734 76.0876 115.159 54.1289 158.33 47.4427C198.765 41.1745 243.638 52.4872 282.69 59.9195C327.871 68.516 370.415 74.3465 417.009 74.4161C527.828 74.5952 638.636 78.1969 749.335 78.7541" stroke="url(#paint11_linear_166_23)" stroke-width="0.655117" stroke-miterlimit="10"/>
<path d="M-330.612 24.698C-269.72 31.0956 -220.888 63.6606 -161.36 73.2222C-142.366 76.2667 -122.924 75.0529 -103.881 78.5054C-90.25 80.9729 -77.2261 84.9428 -63.8936 88.1764C-30.1546 96.355 2.70881 97.7579 36.4578 88.6241C78.644 77.212 116.602 55.5616 160.887 48.9252C200.894 42.9256 244.583 53.7309 283.187 61.1533C327.552 69.69 369.221 75.2519 414.979 75.4111C525.827 75.7892 636.666 79.8685 747.395 80.4953" stroke="url(#paint12_linear_166_23)" stroke-width="0.655117" stroke-miterlimit="10"/>
<path d="M-328.264 31.0259C-270.148 36.4783 -222.699 66.4067 -165.628 74.1873C-146.385 76.804 -127.073 75.8289 -107.901 79.4307C-93.7124 82.0972 -80.1014 86.2462 -66.1621 89.5494C-30.6819 97.9469 3.3954 98.6334 38.6268 88.9027C80.624 77.3114 119.855 57.1038 164.081 50.7858C203.909 45.0947 246.742 55.5318 285.098 63.0437C329.134 71.68 370.246 76.4458 415.646 76.7642C525.45 77.5403 635.283 82.0474 744.987 82.7638" stroke="url(#paint13_linear_166_23)" stroke-width="0.655117" stroke-miterlimit="10"/>
<path d="M-325.766 37.8414C-271.133 42.1794 -225.564 68.6453 -171.817 75.0429C-152.306 77.3711 -132.993 76.5752 -113.622 80.2267C-98.9061 82.9927 -84.7579 87.2312 -70.2912 90.6538C-33.9155 99.2503 0.728876 99.907 37.005 90.415C80.6239 79.0029 121.746 59.1435 167.454 52.925C206.735 47.5721 247.936 57.4122 285.724 64.8645C328.687 73.3415 368.594 77.8487 412.9 78.2865C522.763 79.371 632.676 84.4652 742.44 85.2711" stroke="url(#paint14_linear_166_23)" stroke-width="0.655117" stroke-miterlimit="10"/>
<path d="M-323.16 45.0847C-271.7 48.3382 -227.634 71.6004 -176.801 76.217C-156.992 78.0179 -137.59 77.6796 -118.049 81.4704C-102.697 84.4453 -87.912 88.8927 -72.7488 92.3652C-36.4528 100.693 -2.35557 101.2 33.9405 92.4149C79.8478 81.3012 123.158 61.5612 170.906 55.3427C208.337 50.4674 246.702 58.8848 282.72 66.1281C324.528 74.5355 363.46 79.4307 406.671 79.9381C517.719 81.2415 628.806 87.062 739.773 87.9873" stroke="url(#paint15_linear_166_23)" stroke-width="0.655117" stroke-miterlimit="10"/>
<path d="M-320.662 52.1589C-272.695 54.3577 -230.479 73.9485 -183.01 77.3214C-162.932 78.7442 -143.45 78.7143 -123.71 82.5449C-107.831 85.6194 -92.5184 90.1763 -76.8379 93.7581C-39.6762 102.245 -5.01194 102.782 32.2791 94.2059C79.8082 83.2713 124.969 63.8596 174.21 57.7506C211.013 53.1837 248.075 60.9842 283.466 68.2374C324.13 76.5652 361.869 81.1023 403.916 81.7191C515.012 83.3509 626.149 89.7385 737.177 90.7633" stroke="url(#paint16_linear_166_23)" stroke-width="0.655117" stroke-miterlimit="10"/>
<path d="M-317.956 59.9991C-273.312 61.1632 -232.668 76.9035 -188.333 78.7641C-150.714 80.3361 -119.074 86.5845 -83.2257 94.9521C-45.0989 103.847 -9.65857 105.031 28.9358 96.6932C78.813 85.9079 126.442 66.5062 177.901 60.4469C214.306 56.1586 250.503 63.581 285.416 70.9138C323.314 78.8835 358.466 83.112 397.757 83.7588C509.998 85.5994 622.239 92.7831 734.44 93.9273" stroke="url(#paint17_linear_166_23)" stroke-width="0.655117" stroke-miterlimit="10"/>
<path d="M-315.439 67.5012C-274.267 67.7598 -235.593 79.3014 -194.631 80.2267C-156.295 81.0923 -123.81 88.256 -87.3945 96.7132C-48.3723 105.777 -12.3648 107.001 27.2345 98.8523C78.8131 88.2361 128.243 69.3418 181.254 63.2328C216.913 59.1335 251.995 66.0684 286.142 73.4013C322.916 81.3012 356.894 85.1816 395.06 85.9179C507.341 88.0968 619.602 95.8476 731.863 97.0913" stroke="url(#paint18_linear_166_23)" stroke-width="0.655117" stroke-miterlimit="10"/>
<path d="M-312.792 75.6499C-275.232 75.0628 -238.727 81.5997 -201.257 82.0176C-162.195 82.4554 -128.844 90.2559 -91.7722 98.8225C-51.8147 108.056 -15.2003 109.329 25.4338 101.389C78.7635 90.9623 130.123 72.4262 184.796 66.4365C219.719 62.6159 253.528 68.9339 286.909 76.2767C322.498 84.107 355.252 87.6093 392.225 88.445C504.555 90.9921 616.816 99.3498 729.157 100.683" stroke="url(#paint19_linear_166_23)" stroke-width="0.655117" stroke-miterlimit="10"/>
<path d="M-310.404 83.311C-275.531 82.0773 -240.837 84.6542 -205.964 83.8881C-167.857 83.0523 -133.949 92.1861 -97.961 100.514C-54.561 110.553 -15.3099 111.608 28.8762 102.991C81.8577 92.6637 133.536 75.2319 187.91 69.7C222.664 66.1579 255.348 71.9287 288.55 79.3909C323.911 87.3307 356.148 90.1364 392.832 91.1314C504.138 94.166 615.354 102.812 726.719 104.235" stroke="url(#paint20_linear_166_23)" stroke-width="0.655117" stroke-miterlimit="10"/>
<path d="M-307.977 91.4996C-276.108 89.7186 -244.07 87.1317 -212.132 86.1865C-173.428 85.0423 -138.595 94.7232 -102.05 103.151C-57.7448 113.359 -17.8769 114.453 27.3241 106.046C81.8975 95.8973 135.297 78.7939 191.184 73.3515C225.201 70.0383 256.771 75.2519 289.197 82.734C323.453 90.634 354.605 93.0915 390.195 94.176C501.561 97.5688 612.757 106.762 724.222 108.245" stroke="url(#paint21_linear_166_23)" stroke-width="0.655117" stroke-miterlimit="10"/>
<path d="M-305.708 99.5985C-277.173 97.4892 -249.662 91.1911 -221.206 89.0818C-180.323 86.0472 -142.008 97.8573 -103.483 106.623C-59.675 116.592 -20.5632 117.408 24.1104 109.618C80.9125 99.7179 136.391 82.724 194.358 77.1423C226.505 74.048 256.542 78.4656 287.177 85.679C322.289 93.9471 354.178 96.2156 390.722 97.5588C501.133 101.598 611.344 110.891 721.914 112.443" stroke="url(#paint22_linear_166_23)" stroke-width="0.655117" stroke-miterlimit="10"/>
<path d="M-303.927 106.474C-276.636 104.106 -252.647 94.2954 -225.684 91.6687C-184.861 87.6889 -144.873 100.703 -106.428 109.429C-62.0034 119.508 -22.4936 120.343 22.8764 112.712C80.9023 102.952 137.695 86.2163 196.805 80.7043C228.395 77.7592 257.726 81.7788 287.774 89.0221C322.02 97.2903 353.083 99.2603 388.772 100.663C499.242 104.981 609.404 114.672 720.073 116.264" stroke="url(#paint23_linear_166_23)" stroke-width="0.655117" stroke-miterlimit="10"/>
<path d="M-302.086 114.175C-275.272 111.588 -256.249 98.1061 -230.29 94.952C-189.646 90.0071 -147.699 104.295 -109.403 112.961C-64.3513 123.159 -24.4734 123.995 21.5931 116.523C80.8925 106.892 139.058 90.4648 199.382 84.9925C230.365 82.1867 259 85.7885 288.421 93.0915C321.772 101.37 352.018 103.021 386.842 104.474C497.362 109.08 607.444 119.189 718.212 120.821" stroke="url(#paint24_linear_166_23)" stroke-width="0.655117" stroke-miterlimit="10"/>
<path d="M-300.554 121.567C-284.705 119.975 -274.954 116.891 -262.457 109.598C-252.657 103.877 -245.692 100.036 -233.146 98.4244C-192.064 93.1611 -148.057 108.802 -109.343 117.418C-65.4657 127.189 -26.4633 127.995 18.3893 120.97C79.4399 111.409 139.406 94.9123 201.452 89.5892C232.285 86.9426 260.413 90.2061 289.674 97.6086C320.976 105.528 349.451 107.12 382.186 108.454C493.78 112.971 604.748 123.885 716.631 125.567" stroke="url(#paint25_linear_166_23)" stroke-width="0.655117" stroke-miterlimit="10"/>
<path d="M-299.41 128.114C-282.983 126.512 -274.765 123.497 -263.353 114.752C-254.448 107.916 -249.135 103.927 -236.141 102.146C-195.139 96.5042 -149.749 112.742 -111.124 121.398C-66.9682 131.298 -27.747 131.994 17.4042 125.089C79.3403 115.617 140.252 99.3796 203.133 94.0367C233.519 91.4598 261.248 94.4546 290.042 101.907C320.806 109.866 348.834 111.23 381.061 112.573C492.655 117.219 603.524 128.482 715.456 130.164" stroke="url(#paint26_linear_166_23)" stroke-width="0.655117" stroke-miterlimit="10"/>
<defs>
<linearGradient id="paint0_linear_166_23" x1="207.998" y1="136.094" x2="207.998" y2="97.9404" gradientUnits="userSpaceOnUse">
<stop stop-color="#333333"/>
<stop offset="1" stop-color="#808080"/>
</linearGradient>
<linearGradient id="paint1_linear_166_23" x1="207.998" y1="141.2" x2="207.998" y2="102.801" gradientUnits="userSpaceOnUse">
<stop stop-color="#333333"/>
<stop offset="1" stop-color="#808080"/>
</linearGradient>
<linearGradient id="paint2_linear_166_23" x1="208.001" y1="146.698" x2="208.001" y2="108.299" gradientUnits="userSpaceOnUse">
<stop stop-color="#333333"/>
<stop offset="1" stop-color="#808080"/>
</linearGradient>
<linearGradient id="paint3_linear_166_23" x1="208.002" y1="152.164" x2="208.002" y2="114.173" gradientUnits="userSpaceOnUse">
<stop stop-color="#333333"/>
<stop offset="1" stop-color="#808080"/>
</linearGradient>
<linearGradient id="paint4_linear_166_23" x1="208.001" y1="157.308" x2="208.001" y2="119.869" gradientUnits="userSpaceOnUse">
<stop stop-color="#333333"/>
<stop offset="1" stop-color="#808080"/>
</linearGradient>
<linearGradient id="paint5_linear_166_23" x1="208.468" y1="91.1998" x2="208.468" y2="0.442301" gradientUnits="userSpaceOnUse">
<stop stop-color="#333333"/>
<stop offset="1" stop-color="#808080"/>
</linearGradient>
<linearGradient id="paint6_linear_166_23" x1="208.462" y1="91.5507" x2="208.462" y2="1.41257" gradientUnits="userSpaceOnUse">
<stop stop-color="#333333"/>
<stop offset="1" stop-color="#808080"/>
</linearGradient>
<linearGradient id="paint7_linear_166_23" x1="208.452" y1="91.8422" x2="208.452" y2="3.23393" gradientUnits="userSpaceOnUse">
<stop stop-color="#333333"/>
<stop offset="1" stop-color="#808080"/>
</linearGradient>
<linearGradient id="paint8_linear_166_23" x1="208.439" y1="92.3406" x2="208.439" y2="6.09413" gradientUnits="userSpaceOnUse">
<stop stop-color="#333333"/>
<stop offset="1" stop-color="#808080"/>
</linearGradient>
<linearGradient id="paint9_linear_166_23" x1="208.424" y1="92.8962" x2="208.424" y2="9.54624" gradientUnits="userSpaceOnUse">
<stop stop-color="#333333"/>
<stop offset="1" stop-color="#808080"/>
</linearGradient>
<linearGradient id="paint10_linear_166_23" x1="208.405" y1="93.602" x2="208.405" y2="14.011" gradientUnits="userSpaceOnUse">
<stop stop-color="#333333"/>
<stop offset="1" stop-color="#808080"/>
</linearGradient>
<linearGradient id="paint11_linear_166_23" x1="208.384" y1="94.5733" x2="208.384" y2="19.1939" gradientUnits="userSpaceOnUse">
<stop stop-color="#333333"/>
<stop offset="1" stop-color="#808080"/>
</linearGradient>
<linearGradient id="paint12_linear_166_23" x1="208.364" y1="95.4172" x2="208.364" y2="24.2074" gradientUnits="userSpaceOnUse">
<stop stop-color="#333333"/>
<stop offset="1" stop-color="#808080"/>
</linearGradient>
<linearGradient id="paint13_linear_166_23" x1="208.34" y1="96.5114" x2="208.34" y2="30.5262" gradientUnits="userSpaceOnUse">
<stop stop-color="#333333"/>
<stop offset="1" stop-color="#808080"/>
</linearGradient>
<linearGradient id="paint14_linear_166_23" x1="208.315" y1="97.8117" x2="208.315" y2="37.3441" gradientUnits="userSpaceOnUse">
<stop stop-color="#333333"/>
<stop offset="1" stop-color="#808080"/>
</linearGradient>
<linearGradient id="paint15_linear_166_23" x1="208.289" y1="99.3094" x2="208.289" y2="44.5849" gradientUnits="userSpaceOnUse">
<stop stop-color="#333333"/>
<stop offset="1" stop-color="#808080"/>
</linearGradient>
<linearGradient id="paint16_linear_166_23" x1="208.264" y1="100.872" x2="208.264" y2="51.6572" gradientUnits="userSpaceOnUse">
<stop stop-color="#333333"/>
<stop offset="1" stop-color="#808080"/>
</linearGradient>
<linearGradient id="paint17_linear_166_23" x1="208.238" y1="102.825" x2="208.238" y2="58.6792" gradientUnits="userSpaceOnUse">
<stop stop-color="#333333"/>
<stop offset="1" stop-color="#808080"/>
</linearGradient>
<linearGradient id="paint18_linear_166_23" x1="208.214" y1="104.788" x2="208.214" y2="61.5097" gradientUnits="userSpaceOnUse">
<stop stop-color="#333333"/>
<stop offset="1" stop-color="#808080"/>
</linearGradient>
<linearGradient id="paint19_linear_166_23" x1="208.181" y1="107.124" x2="208.181" y2="64.7892" gradientUnits="userSpaceOnUse">
<stop stop-color="#333333"/>
<stop offset="1" stop-color="#808080"/>
</linearGradient>
<linearGradient id="paint20_linear_166_23" x1="208.148" y1="109.322" x2="208.148" y2="68.1449" gradientUnits="userSpaceOnUse">
<stop stop-color="#333333"/>
<stop offset="1" stop-color="#808080"/>
</linearGradient>
<linearGradient id="paint21_linear_166_23" x1="208.115" y1="112.157" x2="208.115" y2="71.8401" gradientUnits="userSpaceOnUse">
<stop stop-color="#333333"/>
<stop offset="1" stop-color="#808080"/>
</linearGradient>
<linearGradient id="paint22_linear_166_23" x1="208.085" y1="115.352" x2="208.085" y2="75.6511" gradientUnits="userSpaceOnUse">
<stop stop-color="#333333"/>
<stop offset="1" stop-color="#808080"/>
</linearGradient>
<linearGradient id="paint23_linear_166_23" x1="208.06" y1="118.291" x2="208.06" y2="79.2182" gradientUnits="userSpaceOnUse">
<stop stop-color="#333333"/>
<stop offset="1" stop-color="#808080"/>
</linearGradient>
<linearGradient id="paint24_linear_166_23" x1="208.037" y1="121.966" x2="208.037" y2="83.539" gradientUnits="userSpaceOnUse">
<stop stop-color="#333333"/>
<stop offset="1" stop-color="#808080"/>
</linearGradient>
<linearGradient id="paint25_linear_166_23" x1="208.018" y1="126.102" x2="208.018" y2="88.1872" gradientUnits="userSpaceOnUse">
<stop stop-color="#333333"/>
<stop offset="1" stop-color="#808080"/>
</linearGradient>
<linearGradient id="paint26_linear_166_23" x1="208.005" y1="130.657" x2="208.005" y2="92.6269" gradientUnits="userSpaceOnUse">
<stop stop-color="#333333"/>
<stop offset="1" stop-color="#808080"/>
</linearGradient>
</defs>
</svg>
