<svg width="1440" height="869" viewBox="0 0 1440 869" fill="none" xmlns="http://www.w3.org/2000/svg">
<path d="M1662.31 868.535H1662.28C1429.64 842.3 1247.43 816.101 1105.25 788.432C963.934 760.943 856.593 731.339 767.495 695.356C687.715 663.136 620.73 624.644 556.648 574.217C497.297 527.517 443.143 473.076 380.495 410.069C275.054 304.055 143.808 172.128 -85.1025 1.52938C-85.3175 1.38602 -85.3534 1.09931 -85.21 0.920109C-85.0666 0.740909 -84.7799 0.669233 -84.6007 0.812593C144.345 171.411 275.627 303.41 381.104 409.424C443.753 472.431 497.871 526.8 557.186 573.5C621.196 623.855 688.11 662.311 767.818 694.496C856.88 730.479 964.149 760.047 1105.43 787.536C1247.57 815.205 1429.78 841.404 1662.38 867.639C1662.64 867.675 1662.81 867.89 1662.78 868.141C1662.74 868.356 1662.53 868.535 1662.31 868.535Z" fill="#363635"/>
<path d="M1661.88 841.906C1661.85 841.906 1661.85 841.906 1661.88 841.906C1245.17 811.908 977.052 766.928 792.44 696.037C618.688 629.303 525.898 543.287 408.378 434.369C297.454 331.58 159.434 203.631 -93.3815 53.2105C-93.5966 53.0671 -93.6683 52.8163 -93.5249 52.6012C-93.3815 52.3862 -93.1307 52.3145 -92.9156 52.4579C160.007 202.914 298.063 330.899 408.988 433.724C526.435 542.57 619.189 628.55 792.762 695.213C977.267 766.068 1245.31 811.047 1661.92 841.01C1662.17 841.01 1662.35 841.26 1662.35 841.476C1662.31 841.726 1662.1 841.906 1661.88 841.906Z" fill="#AF885A"/>
<path d="M1661.45 815.241C1661.42 815.241 1661.42 815.241 1661.45 815.241C1276.14 803.449 1008.05 765.71 817.779 696.503C643.525 633.102 546.864 549.559 434.936 452.827C312.65 347.135 174.021 227.321 -101.589 104.856C-101.804 104.749 -101.911 104.498 -101.804 104.247C-101.696 104.032 -101.445 103.924 -101.194 104.032C174.559 226.533 313.223 346.382 435.581 452.146C547.438 548.842 644.027 632.313 818.137 695.678C1008.34 764.85 1276.32 802.589 1661.52 814.381C1661.78 814.381 1661.95 814.596 1661.95 814.846C1661.88 815.061 1661.67 815.241 1661.45 815.241Z" fill="#383837"/>
<path d="M1595.47 788.97C1432 788.97 1291.55 781.623 1167.72 766.57C1041.81 751.302 935.262 728.293 842.042 696.216C667.753 636.256 566.397 553.537 459.092 465.944C393.075 412.041 324.8 356.31 236.131 303.302C135.851 243.342 22.7042 195.316 -109.832 156.502C-110.083 156.43 -110.19 156.179 -110.155 155.928C-110.083 155.677 -109.832 155.57 -109.581 155.641C23.0268 194.492 136.245 242.553 236.561 302.55C325.301 355.593 393.577 411.36 459.63 465.263C566.863 552.82 668.183 635.503 842.329 695.392C935.513 727.433 1041.99 750.442 1167.83 765.71C1307.85 782.698 1469.17 789.902 1661.02 787.716C1661.27 787.716 1661.45 787.895 1661.45 788.146C1661.45 788.397 1661.27 788.576 1661.02 788.612C1638.77 788.863 1616.9 788.97 1595.47 788.97Z" fill="#9F8449"/>
<path d="M1438.06 768.362C1346.92 768.362 1263.23 764.706 1185.32 757.359C1063 745.819 957.985 725.426 864.299 694.962C690.332 638.406 583.6 555.15 480.381 474.581C410.314 419.925 337.881 363.37 245.342 316.24C141.657 263.412 22.7401 228.038 -118.111 208.147C-118.362 208.111 -118.541 207.896 -118.505 207.645C-118.469 207.394 -118.254 207.215 -118.004 207.251C22.9552 227.178 141.944 262.588 245.737 315.452C338.347 362.653 410.851 419.209 480.919 473.901C584.066 554.397 690.726 637.618 864.55 694.137C958.164 724.565 1063.1 744.958 1185.35 756.499C1322.69 769.437 1478.1 770.942 1660.48 761.086C1660.7 761.086 1660.95 761.266 1660.95 761.517C1660.95 761.767 1660.77 761.982 1660.52 761.982C1581.6 766.211 1507.66 768.362 1438.06 768.362Z" fill="#373534"/>
<path d="M1345.63 751.768C1294.88 751.768 1246.53 750.263 1200.8 747.216C1081.63 739.296 978.127 721.412 884.334 692.632C710.904 639.374 603.205 558.196 499.054 479.671C421.496 421.216 348.275 366.022 252.224 325.057C144.023 278.895 23.7436 258.144 -126.283 259.792C-126.533 259.757 -126.749 259.613 -126.749 259.362C-126.749 259.111 -126.569 258.932 -126.318 258.896C-121.086 258.825 -115.853 258.825 -110.728 258.825C207.567 258.825 349.458 365.807 499.591 478.99C603.706 557.479 711.334 638.621 884.62 691.808C978.342 720.587 1081.81 738.436 1200.91 746.356C1333.66 755.209 1488.17 751.195 1660.13 734.457C1660.34 734.386 1660.59 734.601 1660.63 734.852C1660.66 735.103 1660.48 735.318 1660.23 735.353C1547.41 746.285 1442.15 751.768 1345.63 751.768Z" fill="#AF885A"/>
<path d="M1286.1 737.611C1140.3 737.611 1013.14 721.519 902.039 689.299C729.29 639.159 620.408 559.235 515.146 481.893C433.395 421.861 356.196 365.162 256.955 330.576C146.03 291.941 21.6292 285.848 -134.562 311.366C-134.848 311.402 -135.027 311.223 -135.063 311.008C-135.099 310.757 -134.92 310.542 -134.705 310.506C21.5934 284.952 146.137 291.081 257.241 329.752C356.626 364.373 433.897 421.108 515.684 481.176C620.91 558.447 729.72 638.37 902.29 688.439C1099.37 745.603 1347.1 751.947 1659.62 707.757C1659.88 707.721 1660.09 707.9 1660.13 708.151C1660.16 708.402 1659.98 708.617 1659.73 708.652C1523.25 727.934 1399.07 737.611 1286.1 737.611Z" fill="#343130"/>
<path d="M1242.38 724.888C1122.13 724.888 1014.47 711.627 917.701 685.106C745.669 637.976 630.623 555.078 529.124 481.965C443.287 420.141 362.217 361.757 259.965 333.694C146.46 302.585 18.4755 311.868 -142.805 362.94C-143.02 363.012 -143.306 362.868 -143.378 362.653C-143.45 362.402 -143.306 362.151 -143.091 362.08C18.368 310.972 146.496 301.653 260.18 332.834C362.575 360.897 443.717 419.352 529.626 481.212C631.053 554.29 746.063 637.116 917.916 684.21C1115 738.221 1357.46 737.181 1659.12 681.056C1659.34 681.02 1659.59 681.163 1659.66 681.414C1659.7 681.665 1659.55 681.88 1659.3 681.952C1505.62 710.588 1367.21 724.888 1242.38 724.888Z" fill="#3F3C3C"/>
<path d="M1209.72 713.133C1108.73 713.133 1016.37 702.166 931.606 680.232C760.291 635.934 643.955 553.322 541.309 480.424C451.53 416.664 366.732 356.417 261.649 335.057C145.671 311.438 14.5327 336.705 -151.048 414.586C-151.263 414.693 -151.55 414.586 -151.657 414.371C-151.765 414.156 -151.657 413.869 -151.442 413.761C14.3176 335.809 145.635 310.506 261.829 334.161C367.055 355.593 451.96 415.876 541.811 479.707C644.385 552.57 760.65 635.145 931.822 679.372C1128.62 730.264 1366.38 722.129 1658.69 654.463C1658.94 654.391 1659.16 654.57 1659.23 654.785C1659.3 655.036 1659.12 655.251 1658.91 655.323C1492.32 693.923 1343.41 713.133 1209.72 713.133Z" fill="#373334"/>
<path d="M1184.39 702.058C1098.41 702.058 1018.55 692.955 944.007 674.784C773.409 633.209 655.782 550.491 551.989 477.556C454.325 408.887 369.994 349.607 262.259 334.913C143.879 318.785 9.94518 360.503 -159.255 466.159C-159.471 466.303 -159.757 466.231 -159.865 466.016C-160.008 465.801 -159.936 465.514 -159.721 465.407C9.65845 359.643 143.808 317.889 262.402 334.017C370.352 348.711 454.791 408.063 552.527 476.804C656.248 549.702 773.767 632.349 944.222 673.888C1140.55 721.734 1374.12 706.681 1658.26 627.798C1658.48 627.726 1658.76 627.869 1658.8 628.12C1658.87 628.371 1658.73 628.586 1658.48 628.658C1482.04 677.687 1325.06 702.058 1184.39 702.058Z" fill="#453F42"/>
<path d="M1163.92 691.557C873.438 691.557 705.42 574.217 561.415 473.686C459.916 402.83 372.252 341.651 261.972 333.731C203.517 329.537 142.732 340.791 76.1057 368.065C2.9921 398.027 -76.6802 446.985 -167.535 517.769C-167.714 517.912 -168.001 517.876 -168.18 517.697C-168.323 517.518 -168.287 517.231 -168.108 517.052C-77.2178 446.232 2.56201 397.203 75.7114 367.241C142.481 339.895 203.409 328.641 262.008 332.835C372.538 340.755 460.31 402.006 561.917 472.933C772.728 620.092 1035.04 803.235 1657.8 601.204C1658.05 601.133 1658.3 601.24 1658.37 601.491C1658.44 601.742 1658.33 601.993 1658.08 602.065C1460.39 666.182 1298.93 691.557 1163.92 691.557Z" fill="#383437"/>
<path d="M1147.83 681.306C1083.96 681.306 1023.21 675.034 965.189 662.562C795.881 626.113 675.781 542.641 569.802 468.99C464.612 395.877 373.757 332.762 260.969 331.651C260.001 331.651 258.998 331.651 258.03 331.651C199.252 331.651 138.181 348.639 71.5186 383.583C-2.70604 422.47 -83.6328 483.255 -175.813 569.414C-175.992 569.593 -176.279 569.557 -176.458 569.378C-176.638 569.199 -176.602 568.912 -176.423 568.733C-84.1704 482.538 -3.20781 421.681 71.1244 382.759C137.93 347.779 199.109 330.719 258.03 330.719C259.034 330.719 260.001 330.719 260.969 330.719C374.008 331.795 464.97 395.016 570.304 468.202C676.211 541.817 796.239 625.217 965.368 661.63C1160.55 703.67 1386.88 675.142 1657.33 574.503C1657.55 574.431 1657.83 574.539 1657.9 574.754C1657.98 575.005 1657.87 575.256 1657.65 575.327C1467.41 646.183 1298.97 681.306 1147.83 681.306Z" fill="#585156"/>
<path d="M1134.28 671.415C1078.84 671.415 1025.62 666.218 974.364 655.896C805.629 621.884 684.347 537.803 577.293 463.614C468.518 388.207 374.546 323.086 259.428 328.856C198.5 331.902 135.421 354.661 66.5727 398.493C-8.72716 446.411 -90.7291 519.202 -184.056 620.952C-184.236 621.131 -184.522 621.131 -184.702 620.988C-184.881 620.809 -184.881 620.558 -184.737 620.343C-91.3384 518.521 -9.3006 445.694 66.0709 397.741C135.063 353.837 198.285 331.006 259.356 327.96C374.833 322.19 468.877 387.383 577.794 462.862C684.741 536.979 805.988 621.024 974.507 655C1169.08 694.209 1392.26 659.157 1656.86 547.874C1657.12 547.767 1657.37 547.874 1657.44 548.125C1657.55 548.34 1657.44 548.627 1657.19 548.699C1462.15 630.772 1289.54 671.415 1134.28 671.415Z" fill="#9F8449"/>
<path d="M-192.694 672.741C-192.802 672.741 -192.909 672.705 -192.981 672.633C-193.16 672.49 -193.196 672.203 -193.052 671.988C-98.6857 554.361 -15.6444 469.421 60.7307 412.292C130.69 360.001 194.987 331.329 257.313 324.627C375.191 312.011 472.21 379.176 584.604 456.984C692.59 531.746 815.019 616.508 983.001 648.083C1176.93 684.532 1397.2 643.065 1656.47 521.245C1656.69 521.138 1656.97 521.245 1657.08 521.46C1657.19 521.675 1657.08 521.962 1656.87 522.07C1457.92 615.54 1281.87 661.738 1123.06 661.738C1074.79 661.738 1028.12 657.473 982.858 648.943C814.697 617.332 692.196 532.535 584.138 457.701C471.923 380 375.012 312.871 257.456 325.523C195.31 332.189 131.156 360.825 61.3399 413.008C-14.9993 470.066 -97.933 554.971 -192.264 672.526C-192.443 672.705 -192.551 672.741 -192.694 672.741Z" fill="#353235"/>
<path d="M-200.973 724.35C-201.08 724.35 -201.152 724.315 -201.224 724.279C-201.439 724.135 -201.475 723.849 -201.331 723.669C-106.104 590.058 -22.2029 492.86 55.1398 426.556C126.031 365.807 191.368 331.222 254.876 320.9C375.048 301.331 475.005 370.574 590.769 450.712C699.794 526.191 823.334 611.741 990.779 640.987C1184.06 674.748 1401.68 626.901 1656.01 494.652C1656.22 494.544 1656.51 494.616 1656.61 494.831C1656.72 495.046 1656.65 495.333 1656.44 495.44C1401.94 627.762 1184.14 675.68 990.635 641.847C822.976 612.565 699.364 526.944 590.267 451.429C474.683 371.398 374.868 302.263 255.019 321.796C191.69 332.118 126.497 366.596 55.7133 427.237C-21.5936 493.505 -105.423 590.631 -200.614 724.171C-200.722 724.315 -200.829 724.35 -200.973 724.35Z" fill="#9F8449"/>
<path d="M-209.288 775.996C-209.36 775.996 -209.467 775.96 -209.539 775.924C-209.754 775.781 -209.826 775.494 -209.682 775.315C-112.771 624.106 -27.2925 513.826 51.6272 438.204C123.881 368.997 190.722 329 255.915 315.954C376.696 291.798 478.482 362.331 596.323 444.01C706.316 520.242 831.004 606.652 997.982 633.64C1190.66 664.749 1405.73 610.594 1655.5 467.987C1655.72 467.844 1656 467.951 1656.11 468.166C1656.22 468.381 1656.15 468.668 1655.93 468.776C1405.98 611.455 1190.73 665.681 997.839 634.536C830.681 607.548 705.922 521.066 595.822 444.763C478.123 363.191 376.481 292.765 256.094 316.85C191.045 329.86 124.382 369.785 52.2365 438.849C-26.6474 514.4 -112.09 624.608 -208.93 775.781C-209.001 775.924 -209.145 775.996 -209.288 775.996Z" fill="#343134"/>
<path d="M-217.567 827.606C-217.639 827.606 -217.71 827.57 -217.782 827.534C-217.997 827.391 -218.069 827.14 -217.925 826.925C-118.756 656.541 -31.2349 532.392 49.7277 447.343C123.63 369.678 192.299 324.663 259.607 309.718C379.814 283.053 482.567 354.41 601.592 437.021C824.983 592.101 1102.99 785.135 1655.14 441.358C1655.36 441.215 1655.65 441.286 1655.75 441.501C1655.9 441.716 1655.83 442.003 1655.61 442.111C1409.93 595.076 1197.04 655.574 1004.72 627.009C838.028 602.28 712.123 514.866 601.054 437.738C482.209 355.234 379.563 283.985 259.786 310.542C192.658 325.451 124.167 370.395 50.3728 447.917C-30.5181 532.929 -118.039 657.043 -217.137 827.355C-217.28 827.534 -217.424 827.606 -217.567 827.606Z" fill="#352C36"/>
</svg>
