<svg width="18" height="17" viewBox="0 0 18 17" fill="none" xmlns="http://www.w3.org/2000/svg">
<path d="M9.76464 2.12925C10.2579 2.12736 10.7512 2.13231 11.2444 2.14412L11.3755 2.14885C11.5269 2.15426 11.6763 2.16102 11.8568 2.16913C12.576 2.20293 13.0668 2.3165 13.4974 2.48346C13.9435 2.65516 14.3194 2.8877 14.6952 3.26354C15.0389 3.60126 15.3048 4.00978 15.4746 4.4607C15.6416 4.89129 15.7552 5.38273 15.789 6.10197C15.7971 6.28178 15.8038 6.43185 15.8092 6.58327L15.8133 6.71441C15.8253 7.20732 15.8305 7.70038 15.8288 8.19345L15.8295 8.69772V9.58326C15.8312 10.0765 15.826 10.5698 15.814 11.063L15.8099 11.1941C15.8045 11.3455 15.7977 11.4949 15.7896 11.6754C15.7558 12.3946 15.6409 12.8854 15.4746 13.316C15.3054 13.7674 15.0394 14.1763 14.6952 14.5138C14.3572 14.8574 13.9485 15.1234 13.4974 15.2932C13.0668 15.4602 12.576 15.5738 11.8568 15.6076C11.6763 15.6157 11.5269 15.6224 11.3755 15.6278L11.2444 15.6319C10.7512 15.6439 10.2579 15.6491 9.76464 15.6475L9.26036 15.6481H8.37551C7.88222 15.6498 7.38894 15.6446 6.89579 15.6326L6.76465 15.6285C6.60418 15.6227 6.44375 15.6159 6.28336 15.6082C5.56412 15.5744 5.07336 15.4595 4.64208 15.2932C4.19099 15.1238 3.7824 14.8578 3.44493 14.5138C3.10088 14.176 2.83467 13.7673 2.66485 13.316C2.49788 12.8854 2.38432 12.3946 2.35052 11.6754C2.34299 11.515 2.33623 11.3546 2.33024 11.1941L2.32686 11.063C2.3144 10.5698 2.30876 10.0765 2.30996 9.58326V8.19345C2.30807 7.70039 2.31303 7.20733 2.32483 6.71441L2.32956 6.58327C2.33497 6.43185 2.34173 6.28178 2.34984 6.10197C2.38364 5.38205 2.49721 4.89197 2.66417 4.4607C2.83409 4.00956 3.10083 3.60115 3.4456 3.26422C3.78284 2.91998 4.19118 2.65352 4.64208 2.48346C5.07336 2.3165 5.56344 2.20293 6.28336 2.16913L6.76465 2.14885L6.89579 2.14547C7.3887 2.13302 7.88176 2.12738 8.37483 2.12857L9.76464 2.12925ZM9.06974 5.50914C8.62191 5.5028 8.17728 5.58554 7.7617 5.75254C7.34613 5.91953 6.96788 6.16746 6.64896 6.48191C6.33003 6.79636 6.07678 7.17105 5.90392 7.58423C5.73107 7.9974 5.64205 8.44081 5.64205 8.88869C5.64205 9.33656 5.73107 9.77997 5.90392 10.1931C6.07678 10.6063 6.33003 10.981 6.64896 11.2955C6.96788 11.6099 7.34613 11.8578 7.7617 12.0248C8.17728 12.1918 8.62191 12.2746 9.06974 12.2682C9.96614 12.2682 10.8258 11.9121 11.4597 11.2783C12.0935 10.6444 12.4496 9.78475 12.4496 8.88835C12.4496 7.99195 12.0935 7.13226 11.4597 6.49841C10.8258 5.86456 9.96614 5.50914 9.06974 5.50914ZM9.06974 6.86109C9.33912 6.85613 9.60679 6.90489 9.85711 7.00454C10.1074 7.10419 10.3354 7.25272 10.5277 7.44145C10.7199 7.63019 10.8727 7.85534 10.977 8.10377C11.0813 8.3522 11.135 8.61892 11.135 8.88834C11.1351 9.15777 11.0814 9.42451 10.9772 9.67297C10.873 9.92143 10.7204 10.1466 10.5282 10.3354C10.3359 10.5242 10.108 10.6728 9.85774 10.7726C9.60745 10.8723 9.3398 10.9212 9.07041 10.9163C8.53257 10.9163 8.01676 10.7026 7.63645 10.3223C7.25614 9.942 7.04248 9.42619 7.04248 8.88835C7.04248 8.35051 7.25614 7.8347 7.63645 7.45438C8.01676 7.07407 8.53257 6.86042 9.07041 6.86042L9.06974 6.86109ZM12.6186 4.49517C12.4005 4.5039 12.1943 4.59667 12.0431 4.75405C11.8919 4.91143 11.8074 5.12122 11.8074 5.33947C11.8074 5.55772 11.8919 5.7675 12.0431 5.92488C12.1943 6.08227 12.4005 6.17504 12.6186 6.18376C12.8427 6.18376 13.0576 6.09474 13.2161 5.93628C13.3746 5.77781 13.4636 5.56289 13.4636 5.33879C13.4636 5.11469 13.3746 4.89977 13.2161 4.74131C13.0576 4.58284 12.8427 4.49382 12.6186 4.49382V4.49517Z" fill="#AF885A"/>
</svg>
