<svg width="834" height="139" viewBox="0 0 834 139" fill="none" xmlns="http://www.w3.org/2000/svg">
<path d="M-121.727 168.353C-103.894 166.51 -96.6685 162.924 -86.0513 150.234C-77.7946 140.36 -73.8157 135.291 -59.7143 132.925C-17.0598 125.74 30.8003 146.524 70.9809 157.382C116.975 169.822 157.547 170.632 204.604 162.102C269.585 150.322 333.577 130.36 399.497 123.611C430.555 120.435 458.964 123.897 488.342 133.287C519.781 143.336 548.479 144.768 581.475 146.449C697.079 152.314 811.807 166.896 927.793 168.963" stroke="url(#paint0_linear_208_33)" stroke-width="0.67766" stroke-miterlimit="10"/>
<path d="M-121.305 175.364C-102.73 173.857 -96.1841 170.495 -86.3915 156.623C-78.7945 145.851 -75.7639 140.82 -61.0544 138.479C-18.0082 131.63 29.8828 152.314 70.4036 163.26C116.47 175.7 156.826 176.435 203.954 167.979C269.42 156.237 333.959 136.574 400.332 129.725C431.112 126.55 459.407 129.85 488.507 139.314C519.761 149.462 548.355 150.708 581.207 152.351C633.777 154.991 685.864 163.023 738.373 166.36C801.004 170.345 864.605 174.031 927.349 175.127" stroke="url(#paint1_linear_208_33)" stroke-width="0.67766" stroke-miterlimit="10"/>
<path d="M-121.243 182.25C-102.358 180.992 -95.9984 177.555 -86.2264 163.422C-78.6397 152.439 -75.7638 147.308 -60.8068 145.054C-17.5132 138.517 30.0892 159.026 70.8058 170.059C116.955 182.574 157.465 183.246 204.696 174.729C269.565 163.036 333.454 143.373 399.229 136.574C430.297 133.361 458.779 137.109 488.301 146.075C519.977 155.701 548.881 157.32 581.99 158.876C634.252 161.342 685.915 170.196 738.105 173.483C800.839 177.431 864.43 180.469 927.288 181.901" stroke="url(#paint2_linear_208_33)" stroke-width="0.67766" stroke-miterlimit="10"/>
<path d="M-164.062 0.442505C-85.9072 9.47061 -29.2338 75.4692 47.1897 88.781C66.5997 92.1681 86.2777 90.6489 105.616 95.3933C116.944 98.1702 127.726 102.516 138.89 105.779C170.7 115.081 204.675 116.027 235.455 103.151C271.698 87.984 301.251 59.2061 340.896 51.2365C385.777 42.2208 438.317 59.2684 481.682 68.832C530.171 79.5163 576.444 87.6852 626.355 87.5731C741.341 87.2867 856.234 88.7063 971.117 89.4908" stroke="url(#paint3_linear_208_33)" stroke-width="0.67766" stroke-miterlimit="10"/>
<path d="M-163.794 1.65037C-86.4019 11.8988 -29.5842 75.0831 46.2105 88.9553C65.6514 92.5167 85.4325 91.0349 104.822 95.7793C116.326 98.5936 127.273 102.977 138.601 106.277C170.484 115.566 203.995 116.388 234.857 103.6C271.42 88.4447 301.725 59.9782 341.566 51.8716C386.179 42.7936 438.605 59.8288 481.724 69.3674C530.182 80.0891 576.403 88.1584 626.293 88.0089C741.207 87.6353 856.038 89.416 970.839 90.0885" stroke="url(#paint4_linear_208_33)" stroke-width="0.67766" stroke-miterlimit="10"/>
<path d="M-163.155 3.9292C-86.474 14.8999 -29.4604 76.4654 46.0354 89.4784C64.363 92.6289 82.835 91.4459 101.121 95.6673C113.12 98.4317 124.479 102.902 136.251 106.352C170.309 116.314 204.655 116.837 237.455 102.715C272.863 87.461 303.777 60.2522 342.669 52.6063C385.818 44.1261 435.41 59.7292 477.147 69.0063C525.615 79.7778 572.238 88.7436 622.201 88.5693C738.259 88.1708 854.235 90.35 970.179 90.9726" stroke="url(#paint5_linear_208_33)" stroke-width="0.67766" stroke-miterlimit="10"/>
<path d="M-162.062 7.51554C-87.1645 18.5983 -30.687 76.9759 43.1389 89.7523C61.5697 92.9401 80.1344 91.8194 98.5238 96.0533C110.821 98.88 122.48 103.425 134.54 106.937C169.02 116.974 203.212 117.397 236.527 103.45C272.739 88.2953 304.818 61.4227 344.329 53.727C387.148 45.3838 436.049 60.6631 477.467 69.9278C525.502 80.6868 571.641 89.4285 621.171 89.2791C737.187 88.9179 853.152 91.6326 969.055 92.2179" stroke="url(#paint6_linear_208_33)" stroke-width="0.67766" stroke-miterlimit="10"/>
<path d="M-160.722 11.8366C-87.8757 22.6205 -32.2022 77.7854 39.6446 90.0636C58.199 93.239 76.8565 92.193 95.3697 96.4393C107.997 99.3407 119.985 103.973 132.375 107.559C167.371 117.683 201.573 118.044 235.517 104.297C272.657 89.2542 306.014 62.7178 346.287 55.0096C388.756 46.8781 436.812 61.7215 477.869 70.9862C525.358 81.7079 570.868 90.2005 619.851 90.0885C735.858 89.827 851.812 93.102 967.695 93.6873" stroke="url(#paint7_linear_208_33)" stroke-width="0.67766" stroke-miterlimit="10"/>
<path d="M-158.98 17.4277C-88.7108 27.5517 -34.1917 79.0181 35.1708 90.487C53.9108 93.5876 72.661 92.6039 91.3185 96.9249C104.338 99.9384 116.738 104.658 129.541 108.331C165.206 118.592 199.542 118.891 234.311 105.38C272.636 90.487 307.498 64.3366 348.761 56.6533C390.807 48.8082 437.76 63.0913 478.384 72.3436C525.131 83.003 569.826 91.1843 618.068 91.1469C734.064 91.0598 850.039 94.9699 965.912 95.6049" stroke="url(#paint8_linear_208_33)" stroke-width="0.67766" stroke-miterlimit="10"/>
<path d="M-156.95 23.9031C-91.1228 32.9063 -39.0674 76.9635 25.1825 90.2503C44.6852 94.285 64.8064 92.6412 84.4123 96.9374C98.1116 99.9384 111.182 104.795 124.583 108.742C158.826 118.829 192.584 120.56 226.725 108.942C269.132 94.4967 306.828 67.0139 351.555 58.6457C393.446 50.8006 439.935 64.9592 480.394 74.2613C527.203 85.0203 571.28 92.3175 619.552 92.4047C734.363 92.6288 849.163 97.1366 963.85 97.834" stroke="url(#paint9_linear_208_33)" stroke-width="0.67766" stroke-miterlimit="10"/>
<path d="M-155.001 30.1792C-91.9165 38.1862 -41.3248 78.9435 20.348 90.9104C40.026 94.7209 60.1679 93.2016 79.8974 97.5227C94.0193 100.611 107.512 105.579 121.325 109.627C156.28 119.863 190.327 121.618 225.292 110.187C268.998 95.9039 308.323 68.807 354.204 60.5012C395.652 52.9923 440.915 66.5158 480.91 75.8054C526.873 86.4897 570.043 93.4507 617.45 93.6499C732.291 94.1231 847.122 99.2287 961.84 100.013" stroke="url(#paint10_linear_208_33)" stroke-width="0.67766" stroke-miterlimit="10"/>
<path d="M-152.569 38.099C-92.3598 44.923 -43.2009 82.3803 15.9258 92.1182C35.8615 95.3933 55.8693 94.1729 75.7329 98.6807C90.4321 102.018 104.533 107.211 118.975 111.345C155.733 121.855 191.038 122.714 227.539 110.536C271.049 96.0284 311.693 70.7372 357.513 62.8298C398.775 55.707 443.151 68.7697 482.889 78.1714C528.512 88.9802 571.105 94.945 618.14 95.3435C731.899 96.3148 845.689 101.956 959.345 102.852" stroke="url(#paint11_linear_208_33)" stroke-width="0.67766" stroke-miterlimit="10"/>
<path d="M-149.982 46.6291C-93.3807 52.0584 -46.17 85.1822 9.51384 93.1892C29.7278 96.1031 49.7357 95.1069 69.8054 99.677C85.0509 103.139 99.7089 108.444 114.697 112.727C152.383 123.486 188.275 124.308 225.858 112.428C271.049 98.1453 313.652 73.29 361.007 65.5072C401.703 58.8077 444.388 71.1233 483.538 80.4502C528.048 91.0598 569.393 96.7008 615.295 97.2487C729.116 98.6061 842.988 104.982 956.706 105.99" stroke="url(#paint12_linear_208_33)" stroke-width="0.67766" stroke-miterlimit="10"/>
<path d="M-147.281 55.6945C-93.9675 59.7665 -48.3134 88.8806 4.35024 94.6586C24.8735 96.9125 44.9741 96.4891 65.219 101.234C81.1242 104.957 96.4419 110.523 112.151 114.869C149.755 125.292 185.08 125.927 222.684 114.931C270.245 101.022 315.116 76.3159 364.584 68.5331C403.363 62.4313 443.11 72.9662 480.425 82.0317C523.74 92.5541 564.075 98.6808 608.843 99.3158C723.89 100.947 838.979 108.232 953.944 109.39" stroke="url(#paint13_linear_208_33)" stroke-width="0.67766" stroke-miterlimit="10"/>
<path d="M-144.693 64.5483C-94.9985 67.3003 -51.2616 91.8194 -2.08213 96.0408C18.7194 97.8215 38.9025 97.7842 59.3536 102.578C75.8051 106.426 91.6692 112.13 107.915 116.612C146.415 127.234 182.328 127.907 220.962 117.173C270.204 103.487 316.992 79.1925 368.006 71.5466C406.135 65.8309 444.533 75.5937 481.198 84.6716C523.327 95.0944 562.425 100.773 605.987 101.545C721.086 103.587 836.227 111.582 951.254 112.864" stroke="url(#paint14_linear_208_33)" stroke-width="0.67766" stroke-miterlimit="10"/>
<path d="M-141.89 74.3609C-95.6376 75.8179 -53.5294 95.5178 -7.59697 97.8465C31.3776 99.814 64.1571 107.634 101.297 118.107C140.797 129.239 177.514 130.721 217.499 120.286C269.173 106.787 318.517 82.5049 371.83 74.9213C409.547 69.5542 447.048 78.8438 483.219 88.0214C522.482 97.9959 558.9 103.288 599.606 104.098C715.891 106.401 832.176 115.392 948.419 116.824" stroke="url(#paint15_linear_208_33)" stroke-width="0.67766" stroke-miterlimit="10"/>
<path d="M-139.282 83.7502C-96.6272 84.0739 -56.56 98.5189 -14.122 99.677C25.5948 100.76 59.2504 109.726 96.9777 120.311C137.406 131.655 174.71 133.187 215.736 122.988C269.173 109.701 320.383 86.0539 375.304 78.408C412.248 73.2776 448.594 81.957 483.971 91.1345C522.069 101.022 557.271 105.878 596.813 106.8C713.139 109.527 829.444 119.228 945.749 120.784" stroke="url(#paint16_linear_208_33)" stroke-width="0.67766" stroke-miterlimit="10"/>
<path d="M-136.54 93.9488C-97.6271 93.2141 -59.807 101.395 -20.9871 101.918C19.4822 102.466 54.0346 112.229 92.4422 122.951C133.839 134.507 171.773 136.101 213.87 126.164C269.121 113.113 322.331 89.9141 378.974 82.4177C415.155 77.6359 450.182 85.5433 484.765 94.7333C521.637 104.533 555.571 108.917 593.875 109.963C710.252 113.151 826.558 123.611 942.945 125.279" stroke="url(#paint17_linear_208_33)" stroke-width="0.67766" stroke-miterlimit="10"/>
<path d="M-134.066 103.537C-97.9364 101.993 -61.9923 105.218 -25.8628 104.26C13.6169 103.213 48.7466 114.645 86.0306 125.068C130.994 137.632 171.659 138.952 217.437 128.168C272.327 115.243 325.867 93.4258 382.2 86.5021C418.206 82.069 452.068 89.2915 486.466 98.631C523.1 108.568 556.498 112.08 594.504 113.325C709.82 117.123 825.042 127.944 940.42 129.725" stroke="url(#paint18_linear_208_33)" stroke-width="0.67766" stroke-miterlimit="10"/>
<path d="M-131.551 113.786C-98.5345 111.557 -65.3427 108.319 -32.254 107.136C7.84412 105.704 43.9324 117.82 81.7937 128.368C127.695 141.144 168.999 142.514 215.829 131.991C272.368 119.29 327.691 97.8838 385.591 91.0723C420.834 86.9256 453.542 93.4507 487.135 102.815C522.626 112.702 554.9 115.778 591.772 117.136C707.149 121.382 822.352 132.888 937.832 134.743" stroke="url(#paint19_linear_208_33)" stroke-width="0.67766" stroke-miterlimit="10"/>
<path d="M-129.201 123.922C-99.6373 121.282 -71.1357 113.4 -41.6548 110.76C0.700806 106.962 40.3969 121.743 80.3095 132.714C125.696 145.191 166.216 146.212 212.499 136.462C271.348 124.072 328.825 102.803 388.88 95.8167C422.185 91.9439 453.305 97.4728 485.043 106.501C521.42 116.849 554.457 119.688 592.318 121.369C706.706 126.425 820.888 138.056 935.441 139.998" stroke="url(#paint20_linear_208_33)" stroke-width="0.67766" stroke-miterlimit="10"/>
<path d="M-127.355 132.527C-99.0806 129.563 -74.228 117.285 -46.2933 113.997C-3.99958 109.016 37.4283 125.304 77.2584 136.225C123.284 148.84 164.217 149.886 211.221 140.335C271.338 128.119 330.176 107.173 391.415 100.275C424.143 96.5887 454.531 101.62 485.662 110.685C521.142 121.033 553.323 123.499 590.298 125.255C704.748 130.659 818.878 142.788 933.534 144.78" stroke="url(#paint21_linear_208_33)" stroke-width="0.67766" stroke-miterlimit="10"/>
<path d="M-125.448 142.165C-97.6684 138.927 -77.9595 122.054 -51.0659 118.107C-8.95773 111.918 34.5008 129.8 74.1763 140.646C120.851 153.41 162.165 154.456 209.892 145.104C271.327 133.05 331.588 112.491 394.085 105.642C426.184 102.13 455.851 106.638 486.332 115.778C520.884 126.139 552.22 128.206 588.298 130.024C702.8 135.789 816.847 148.441 931.606 150.483" stroke="url(#paint22_linear_208_33)" stroke-width="0.67766" stroke-miterlimit="10"/>
<path d="M-123.861 151.417C-107.44 149.425 -97.3386 145.565 -84.3917 136.437C-74.2383 129.277 -67.0227 124.47 -54.0243 122.453C-11.4626 115.865 34.1297 135.441 74.2382 146.225C119.696 158.453 160.104 159.462 206.572 150.67C269.822 138.703 331.949 118.057 396.229 111.395C428.174 108.082 457.315 112.167 487.63 121.432C520.059 131.344 549.561 133.336 583.474 135.005C699.089 140.658 814.054 154.319 929.968 156.423" stroke="url(#paint23_linear_208_33)" stroke-width="0.67766" stroke-miterlimit="10"/>
<path d="M-122.676 159.611C-105.657 157.606 -97.1426 153.833 -85.3193 142.887C-76.0937 134.332 -70.5892 129.339 -57.1269 127.11C-14.6476 120.049 32.3775 140.372 72.3932 151.206C118.14 163.596 158.774 164.468 205.552 155.826C269.719 143.971 332.825 123.648 397.972 116.961C429.452 113.736 458.181 117.484 488.012 126.811C519.884 136.773 548.922 138.479 582.31 140.16C697.924 145.976 812.786 160.072 928.751 162.176" stroke="url(#paint24_linear_208_33)" stroke-width="0.67766" stroke-miterlimit="10"/>
<defs>
<linearGradient id="paint0_linear_208_33" x1="403.012" y1="169.598" x2="403.012" y2="121.847" gradientUnits="userSpaceOnUse">
<stop stop-color="#333333"/>
<stop offset="1" stop-color="#808080"/>
</linearGradient>
<linearGradient id="paint1_linear_208_33" x1="403.011" y1="175.989" x2="403.011" y2="127.93" gradientUnits="userSpaceOnUse">
<stop stop-color="#333333"/>
<stop offset="1" stop-color="#808080"/>
</linearGradient>
<linearGradient id="paint2_linear_208_33" x1="403.015" y1="182.87" x2="403.015" y2="134.812" gradientUnits="userSpaceOnUse">
<stop stop-color="#333333"/>
<stop offset="1" stop-color="#808080"/>
</linearGradient>
<linearGradient id="paint3_linear_208_33" x1="403.499" y1="113.411" x2="403.499" y2="-0.178377" gradientUnits="userSpaceOnUse">
<stop stop-color="#333333"/>
<stop offset="1" stop-color="#808080"/>
</linearGradient>
<linearGradient id="paint4_linear_208_33" x1="403.492" y1="113.85" x2="403.492" y2="1.03596" gradientUnits="userSpaceOnUse">
<stop stop-color="#333333"/>
<stop offset="1" stop-color="#808080"/>
</linearGradient>
<linearGradient id="paint5_linear_208_33" x1="403.482" y1="114.215" x2="403.482" y2="3.31554" gradientUnits="userSpaceOnUse">
<stop stop-color="#333333"/>
<stop offset="1" stop-color="#808080"/>
</linearGradient>
<linearGradient id="paint6_linear_208_33" x1="403.468" y1="114.838" x2="403.468" y2="6.89528" gradientUnits="userSpaceOnUse">
<stop stop-color="#333333"/>
<stop offset="1" stop-color="#808080"/>
</linearGradient>
<linearGradient id="paint7_linear_208_33" x1="403.453" y1="115.534" x2="403.453" y2="11.2158" gradientUnits="userSpaceOnUse">
<stop stop-color="#333333"/>
<stop offset="1" stop-color="#808080"/>
</linearGradient>
<linearGradient id="paint8_linear_208_33" x1="403.433" y1="116.417" x2="403.433" y2="16.8038" gradientUnits="userSpaceOnUse">
<stop stop-color="#333333"/>
<stop offset="1" stop-color="#808080"/>
</linearGradient>
<linearGradient id="paint9_linear_208_33" x1="403.412" y1="117.633" x2="403.412" y2="23.2904" gradientUnits="userSpaceOnUse">
<stop stop-color="#333333"/>
<stop offset="1" stop-color="#808080"/>
</linearGradient>
<linearGradient id="paint10_linear_208_33" x1="403.391" y1="118.689" x2="403.391" y2="29.5652" gradientUnits="userSpaceOnUse">
<stop stop-color="#333333"/>
<stop offset="1" stop-color="#808080"/>
</linearGradient>
<linearGradient id="paint11_linear_208_33" x1="403.366" y1="120.058" x2="403.366" y2="37.4735" gradientUnits="userSpaceOnUse">
<stop stop-color="#333333"/>
<stop offset="1" stop-color="#808080"/>
</linearGradient>
<linearGradient id="paint12_linear_208_33" x1="403.339" y1="121.686" x2="403.339" y2="46.0067" gradientUnits="userSpaceOnUse">
<stop stop-color="#333333"/>
<stop offset="1" stop-color="#808080"/>
</linearGradient>
<linearGradient id="paint13_linear_208_33" x1="403.313" y1="123.56" x2="403.313" y2="55.069" gradientUnits="userSpaceOnUse">
<stop stop-color="#333333"/>
<stop offset="1" stop-color="#808080"/>
</linearGradient>
<linearGradient id="paint14_linear_208_33" x1="403.287" y1="125.516" x2="403.287" y2="63.9204" gradientUnits="userSpaceOnUse">
<stop stop-color="#333333"/>
<stop offset="1" stop-color="#808080"/>
</linearGradient>
<linearGradient id="paint15_linear_208_33" x1="403.26" y1="127.961" x2="403.26" y2="72.709" gradientUnits="userSpaceOnUse">
<stop stop-color="#333333"/>
<stop offset="1" stop-color="#808080"/>
</linearGradient>
<linearGradient id="paint16_linear_208_33" x1="403.235" y1="130.417" x2="403.235" y2="76.2515" gradientUnits="userSpaceOnUse">
<stop stop-color="#333333"/>
<stop offset="1" stop-color="#808080"/>
</linearGradient>
<linearGradient id="paint17_linear_208_33" x1="403.201" y1="133.341" x2="403.201" y2="80.3559" gradientUnits="userSpaceOnUse">
<stop stop-color="#333333"/>
<stop offset="1" stop-color="#808080"/>
</linearGradient>
<linearGradient id="paint18_linear_208_33" x1="403.167" y1="136.092" x2="403.167" y2="84.5558" gradientUnits="userSpaceOnUse">
<stop stop-color="#333333"/>
<stop offset="1" stop-color="#808080"/>
</linearGradient>
<linearGradient id="paint19_linear_208_33" x1="403.133" y1="139.64" x2="403.133" y2="89.1806" gradientUnits="userSpaceOnUse">
<stop stop-color="#333333"/>
<stop offset="1" stop-color="#808080"/>
</linearGradient>
<linearGradient id="paint20_linear_208_33" x1="403.101" y1="143.639" x2="403.101" y2="93.9504" gradientUnits="userSpaceOnUse">
<stop stop-color="#333333"/>
<stop offset="1" stop-color="#808080"/>
</linearGradient>
<linearGradient id="paint21_linear_208_33" x1="403.076" y1="147.317" x2="403.076" y2="98.4148" gradientUnits="userSpaceOnUse">
<stop stop-color="#333333"/>
<stop offset="1" stop-color="#808080"/>
</linearGradient>
<linearGradient id="paint22_linear_208_33" x1="403.052" y1="151.917" x2="403.052" y2="103.823" gradientUnits="userSpaceOnUse">
<stop stop-color="#333333"/>
<stop offset="1" stop-color="#808080"/>
</linearGradient>
<linearGradient id="paint23_linear_208_33" x1="403.033" y1="157.094" x2="403.033" y2="109.64" gradientUnits="userSpaceOnUse">
<stop stop-color="#333333"/>
<stop offset="1" stop-color="#808080"/>
</linearGradient>
<linearGradient id="paint24_linear_208_33" x1="403.02" y1="162.794" x2="403.02" y2="115.197" gradientUnits="userSpaceOnUse">
<stop stop-color="#333333"/>
<stop offset="1" stop-color="#808080"/>
</linearGradient>
</defs>
</svg>
