<svg width="18" height="17" viewBox="0 0 18 17" fill="none" xmlns="http://www.w3.org/2000/svg">
<g clip-path="url(#clip0_166_483)">
<path d="M14.7856 14.6015H12.3832V10.8369C12.3832 9.93924 12.3649 8.784 11.1312 8.784C9.87866 8.784 9.68736 9.76079 9.68736 10.7707V14.6015H7.28493V6.86017H9.59272V7.91537H9.62382C9.94626 7.30699 10.7304 6.66481 11.9019 6.66481C14.3361 6.66481 14.7863 8.26688 14.7863 10.3523L14.7856 14.6015ZM4.57156 5.80091C4.38824 5.80118 4.20667 5.76524 4.03726 5.69517C3.86786 5.6251 3.71396 5.52227 3.58439 5.39258C3.45483 5.26288 3.35215 5.10888 3.28224 4.93941C3.21233 4.76994 3.17657 4.58834 3.17702 4.40502C3.17715 4.12907 3.25911 3.85936 3.41253 3.62999C3.56595 3.40062 3.78394 3.2219 4.03893 3.11642C4.29393 3.01094 4.57447 2.98345 4.84509 3.03741C5.11571 3.09138 5.36425 3.22438 5.55928 3.4196C5.75431 3.61482 5.88707 3.86349 5.94078 4.13416C5.99448 4.40483 5.96671 4.68535 5.86099 4.94024C5.75527 5.19513 5.57633 5.41295 5.34682 5.56615C5.1173 5.71935 4.84751 5.80104 4.57156 5.80091ZM5.77615 14.6015H3.36697V6.86017H5.77615V14.6015ZM15.9875 0.776367H2.16102C1.49924 0.776367 0.963867 1.29957 0.963867 1.94513V15.8311C0.963867 16.4773 1.49924 16.9998 2.16102 16.9998H15.9854C16.6465 16.9998 17.1873 16.4773 17.1873 15.8311V1.94513C17.1873 1.29957 16.6465 0.776367 15.9854 0.776367H15.9875Z" fill="#AF885A"/>
</g>
<defs>
<clipPath id="clip0_166_483">
<rect width="16.2235" height="16.2235" fill="white" transform="translate(0.963867 0.776367)"/>
</clipPath>
</defs>
</svg>
