<svg width="22" height="22" viewBox="0 0 22 22" fill="none" xmlns="http://www.w3.org/2000/svg">
<path d="M17.4133 8.2418C17.4133 7.39932 17.2474 6.56509 16.9249 5.78674C16.6025 5.00839 16.13 4.30116 15.5343 3.70544C14.9385 3.10971 14.2313 2.63716 13.453 2.31476C12.6746 1.99235 11.8404 1.82642 10.9979 1.82642C10.1554 1.82642 9.32119 1.99235 8.54284 2.31476C7.76449 2.63716 7.05727 3.10971 6.46154 3.70544C5.86582 4.30116 5.39326 5.00839 5.07086 5.78674C4.74846 6.56509 4.58252 7.39932 4.58252 8.2418C4.58252 9.51296 4.95736 10.6952 5.59523 11.6924H5.5879L10.9979 20.1561L16.4079 11.6924H16.4015C17.0622 10.6628 17.4133 9.46514 17.4133 8.2418ZM10.9979 10.9913C10.2687 10.9913 9.56937 10.7016 9.05375 10.186C8.53813 9.67033 8.24845 8.971 8.24845 8.2418C8.24845 7.5126 8.53813 6.81327 9.05375 6.29765C9.56937 5.78202 10.2687 5.49235 10.9979 5.49235C11.7271 5.49235 12.4264 5.78202 12.9421 6.29765C13.4577 6.81327 13.7474 7.5126 13.7474 8.2418C13.7474 8.971 13.4577 9.67033 12.9421 10.186C12.4264 10.7016 11.7271 10.9913 10.9979 10.9913Z" fill="white"/>
</svg>
