<svg width="22" height="23" viewBox="0 0 22 23" fill="none" xmlns="http://www.w3.org/2000/svg">
<path d="M13.9739 15.7403L15.5136 14.2006C15.721 13.9958 15.9833 13.8556 16.2688 13.7971C16.5544 13.7385 16.8507 13.7641 17.122 13.8707L18.9985 14.6199C19.2726 14.7312 19.5077 14.9211 19.674 15.1658C19.8404 15.4104 19.9306 15.6988 19.9333 15.9947V19.4315C19.9317 19.6327 19.8894 19.8316 19.809 20.016C19.7285 20.2005 19.6115 20.3668 19.4651 20.5048C19.3187 20.6429 19.1458 20.7499 18.957 20.8194C18.7681 20.8889 18.5671 20.9195 18.3661 20.9093C5.21688 20.0913 2.56366 8.95606 2.06189 4.69441C2.0386 4.48514 2.05988 4.2733 2.12433 4.07284C2.18879 3.87238 2.29496 3.68783 2.43586 3.53135C2.57676 3.37487 2.74919 3.24999 2.94182 3.16494C3.13445 3.07988 3.3429 3.03658 3.55347 3.03787H6.87343C7.16969 3.03875 7.45891 3.12824 7.7039 3.29483C7.94888 3.46142 8.13843 3.69749 8.24815 3.97268L8.99738 5.84918C9.10753 6.11936 9.13563 6.41601 9.07818 6.70207C9.02072 6.98813 8.88025 7.25092 8.67432 7.45761L7.13462 8.9973C7.13462 8.9973 8.02132 14.998 13.9739 15.7403Z" fill="white"/>
</svg>
