<svg width="12" height="11" viewBox="0 0 12 11" fill="none" xmlns="http://www.w3.org/2000/svg">
<g clip-path="url(#clip0_166_219)">
<path d="M8.87888 2.961C8.85266 2.961 8.82643 2.961 8.80021 2.961C8.57961 2.93819 8.36065 2.90169 8.14459 2.85173L7.99707 2.81567L8.00472 2.66378C8.01455 2.44524 8.19813 1.89233 8.91057 1.89233H8.9215C9.68639 1.89889 10.0437 2.2715 10.083 2.31412L10.2415 2.48895L10.0339 2.59822C10.0076 2.60915 9.34875 2.961 8.87888 2.961ZM8.22326 2.63974C8.41921 2.68516 8.61771 2.71873 8.81769 2.74027C9.16626 2.77415 9.72901 2.50316 9.88745 2.42339C9.79566 2.34253 9.48424 2.10869 8.9215 2.10432H8.91057C8.34564 2.10432 8.24402 2.52282 8.22654 2.63974H8.22326Z" fill="#AF885A"/>
<path d="M8.76745 4.45603L8.53143 4.44292C8.44292 4.44292 7.65726 4.39047 7.28684 4.11511C7.11041 3.97952 6.9422 3.83357 6.7831 3.67803L6.67383 3.56875L6.75797 3.44309C6.75797 3.43654 7.19505 2.79949 7.94027 3.25952C8.58606 3.65945 8.70517 4.16756 8.71937 4.22438L8.76745 4.45603ZM6.95465 3.54472C7.09956 3.68599 7.25282 3.81845 7.41359 3.94137C7.66054 4.12603 8.20034 4.2058 8.491 4.22656C8.45166 4.10199 8.30196 3.74468 7.82335 3.44856C7.34475 3.15243 7.03551 3.442 6.95465 3.54472Z" fill="#AF885A"/>
<path d="M6.62667 3.65393C6.39173 3.65393 5.95902 3.56652 5.79402 2.96006C5.59297 2.22249 5.84975 1.76902 5.87926 1.71984L6.00382 1.5166L6.16882 1.68706C6.19286 1.7122 6.76762 2.31646 6.85395 2.78523C6.89154 3.00608 6.91526 3.22906 6.92497 3.45287L6.93153 3.60367L6.78401 3.63863C6.73217 3.64873 6.67948 3.65385 6.62667 3.65393ZM6.04535 1.87938C5.98853 1.99848 5.8574 2.36126 6.00601 2.90652C6.15899 3.46817 6.58077 3.45287 6.70534 3.43539C6.6952 3.2321 6.67294 3.02959 6.63868 2.82894C6.57531 2.48255 6.16664 2.01487 6.04535 1.87938Z" fill="#AF885A"/>
<path d="M7.18764 10.5378H4.76075C4.6177 10.5377 4.4761 10.5093 4.34408 10.4542C4.21206 10.3991 4.09223 10.3185 3.99149 10.217C3.89075 10.1154 3.81108 9.99493 3.75707 9.86247C3.70306 9.73001 3.67578 9.58818 3.67678 9.44514V5.04482C3.67678 5.01584 3.6883 4.98804 3.70879 4.96755C3.72928 4.94706 3.75707 4.93555 3.78606 4.93555C3.81504 4.93555 3.84283 4.94706 3.86332 4.96755C3.88381 4.98804 3.89533 5.01584 3.89533 5.04482V9.44514C3.89432 9.55911 3.91581 9.67217 3.95856 9.77783C4.00131 9.88349 4.06449 9.97967 4.14448 10.0609C4.22446 10.1421 4.31968 10.2067 4.42468 10.251C4.52968 10.2954 4.6424 10.3186 4.75638 10.3193H7.18764C7.30153 10.3184 7.41413 10.2951 7.519 10.2507C7.62388 10.2063 7.71897 10.1417 7.79884 10.0605C7.87871 9.9793 7.94179 9.88317 7.98447 9.77758C8.02716 9.67199 8.04861 9.55902 8.0476 9.44514V5.04482C8.0476 5.01584 8.05912 4.98804 8.07961 4.96755C8.1001 4.94706 8.12789 4.93555 8.15687 4.93555C8.18585 4.93555 8.21365 4.94706 8.23414 4.96755C8.25463 4.98804 8.26614 5.01584 8.26614 5.04482V9.44514C8.26715 9.58772 8.24005 9.72911 8.18638 9.86121C8.13271 9.99331 8.05353 10.1135 7.95337 10.215C7.85321 10.3165 7.73402 10.3972 7.60264 10.4526C7.47125 10.508 7.33023 10.537 7.18764 10.5378Z" fill="#AF885A"/>
<path d="M5.97144 5.64352C4.86781 5.64352 3.67676 5.437 3.67676 4.9879C3.67676 4.5388 4.86562 4.33228 5.97144 4.33228C7.07725 4.33228 8.26612 4.5388 8.26612 4.9879C8.26612 5.437 7.07835 5.64352 5.97144 5.64352ZM5.97144 4.54207C4.6296 4.54207 3.8953 4.83383 3.8953 4.97916C3.8953 5.12449 4.62741 5.41624 5.97144 5.41624C7.31546 5.41624 8.04758 5.12449 8.04758 4.97916C8.04758 4.83383 7.31656 4.54207 5.97144 4.54207Z" fill="#AF885A"/>
<path d="M5.97106 5.27646C5.96092 5.27805 5.9506 5.27805 5.94046 5.27646C5.91284 5.26811 5.88964 5.24918 5.87593 5.2238C5.86221 5.19842 5.85909 5.16864 5.86725 5.14096C5.89785 5.03169 6.63214 2.61572 8.15537 2.61572C8.18435 2.61572 8.21215 2.62723 8.23264 2.64773C8.25313 2.66822 8.26464 2.69601 8.26464 2.72499C8.26464 2.75397 8.25313 2.78177 8.23264 2.80226C8.21215 2.82275 8.18435 2.83426 8.15537 2.83426C6.79824 2.83426 6.07924 5.17921 6.07924 5.20325C6.07149 5.22547 6.05678 5.2446 6.03729 5.2578C6.0178 5.27099 5.99457 5.27753 5.97106 5.27646Z" fill="#AF885A"/>
<path d="M3.0142 2.96122C2.54434 2.96122 1.88653 2.60937 1.85703 2.59407L1.64941 2.4848L1.80786 2.30997C1.84719 2.26735 2.20997 1.89474 2.97049 1.88818H2.98251C3.69605 1.88818 3.87853 2.44437 3.88946 2.65963L3.89492 2.80933L3.74741 2.84539C3.53136 2.89548 3.31239 2.93197 3.09178 2.95466C3.06774 2.95903 3.04188 2.96122 3.0142 2.96122ZM2.00345 2.42361C2.1608 2.50338 2.72354 2.77327 3.07212 2.74049C3.27246 2.71892 3.47132 2.68535 3.66764 2.63996C3.65016 2.52414 3.54853 2.10454 2.98251 2.10454H2.97159C2.40994 2.10891 2.09961 2.34275 2.00345 2.42361Z" fill="#AF885A"/>
<path d="M3.13037 4.45566L3.17736 4.22291C3.17736 4.19997 3.29537 3.66673 3.95536 3.25805C4.69731 2.79803 5.13439 3.43507 5.13876 3.44163L5.2229 3.56729L5.11363 3.67656C4.95498 3.83259 4.78674 3.97857 4.60989 4.11364C4.23619 4.39228 3.45272 4.44145 3.3653 4.44145L3.13037 4.45566ZM4.47768 3.3105C4.33086 3.31509 4.18836 3.36133 4.06682 3.44381C3.58603 3.74103 3.43851 4.09944 3.40027 4.22182C3.69093 4.20106 4.22963 4.12129 4.47658 3.93662C4.63758 3.81511 4.79119 3.68412 4.93661 3.54434C4.88244 3.47356 4.8131 3.41581 4.73368 3.37535C4.65426 3.33488 4.56678 3.31272 4.47768 3.3105Z" fill="#AF885A"/>
<path d="M4.65985 3.04747C4.60802 3.04812 4.5563 3.04262 4.50577 3.03108L4.35498 2.9983L4.36154 2.84532L4.47081 2.85079L4.36154 2.84423C4.37146 2.62116 4.39518 2.39892 4.43256 2.17877C4.51889 1.71 5.08819 1.10574 5.11769 1.08607L5.28269 0.907959L5.40616 1.1112C5.43676 1.16037 5.69245 1.61385 5.49139 2.35142C5.33623 2.92291 4.91991 3.04747 4.65985 3.04747ZM4.58336 2.82347C4.69918 2.83767 5.12971 2.85297 5.28269 2.2946C5.43567 1.73623 5.30017 1.38766 5.24444 1.26746C5.12206 1.40186 4.71339 1.87172 4.65001 2.21702C4.61469 2.41757 4.5917 2.6201 4.58117 2.82347H4.58336Z" fill="#AF885A"/>
<path d="M5.92017 5.27668C5.89593 5.27771 5.87203 5.27065 5.85224 5.25661C5.83246 5.24256 5.81791 5.22233 5.8109 5.1991C5.80434 5.17506 5.08862 2.83011 3.73476 2.83011C3.70578 2.83011 3.67798 2.8186 3.65749 2.79811C3.637 2.77762 3.62549 2.74982 3.62549 2.72084C3.62549 2.69186 3.637 2.66407 3.65749 2.64358C3.67798 2.62308 3.70578 2.61157 3.73476 2.61157C5.25471 2.61157 5.99338 5.03301 6.02944 5.13681C6.03346 5.15059 6.03472 5.16502 6.03316 5.17929C6.0316 5.19355 6.02725 5.20737 6.02035 5.21995C6.01345 5.23253 6.00414 5.24363 5.99295 5.25261C5.98176 5.2616 5.96891 5.26829 5.95513 5.27231C5.94384 5.27586 5.93199 5.27734 5.92017 5.27668Z" fill="#AF885A"/>
<path d="M6.29253 7.49908H5.65548C5.59587 7.49974 5.53831 7.47739 5.49475 7.43669C5.4512 7.39598 5.42502 7.34006 5.42165 7.28054C5.40635 7.00299 5.32986 6.94289 5.22496 6.85985C5.19764 6.83799 5.16923 6.81614 5.14082 6.78991C5.06366 6.74775 4.9783 6.72278 4.89059 6.7167C4.65407 6.69506 4.42949 6.60294 4.24589 6.45227C3.92355 6.15287 3.69408 5.28307 3.68424 5.25029C3.67956 5.23614 3.67782 5.22117 3.67914 5.20631C3.68045 5.19146 3.6848 5.17703 3.6919 5.16392C3.699 5.1508 3.70872 5.13928 3.72044 5.13007C3.73216 5.12085 3.74565 5.11413 3.76007 5.11032C3.77448 5.10651 3.78953 5.10569 3.80428 5.10791C3.81902 5.11014 3.83316 5.11535 3.84581 5.12325C3.85846 5.13114 3.86937 5.14154 3.87785 5.1538C3.88633 5.16607 3.89222 5.17994 3.89514 5.19457C3.95633 5.4295 4.16613 6.08403 4.3945 6.29601C4.54788 6.41664 4.73329 6.48959 4.92774 6.50581C5.05795 6.51347 5.18333 6.55779 5.28943 6.63366C5.31347 6.65551 5.33751 6.67409 5.36045 6.69266C5.48174 6.78882 5.61833 6.89591 5.64019 7.27289C5.64187 7.27537 5.64416 7.27737 5.64684 7.27871C5.64951 7.28005 5.65249 7.28068 5.65548 7.28054H6.29253C6.29552 7.28068 6.2985 7.28005 6.30118 7.27871C6.30386 7.27737 6.30615 7.27537 6.30783 7.27289C6.32968 6.89591 6.46627 6.78882 6.58756 6.69266C6.61051 6.67409 6.63455 6.65551 6.65859 6.63366C6.76468 6.55779 6.89007 6.51347 7.02027 6.50581C7.21472 6.48959 7.40014 6.41664 7.55351 6.29601C7.78298 6.07747 7.99059 5.4295 8.05178 5.19457C8.05922 5.16663 8.07743 5.14278 8.10241 5.12824C8.1274 5.1137 8.15713 5.10965 8.18509 5.11698C8.19922 5.12031 8.21255 5.12642 8.22429 5.13495C8.23603 5.14348 8.24596 5.15427 8.25349 5.16668C8.26101 5.17909 8.26599 5.19287 8.26813 5.20723C8.27027 5.22159 8.26953 5.23623 8.26595 5.25029C8.25612 5.28745 8.02665 6.15724 7.70321 6.45227C7.52013 6.60309 7.29584 6.69524 7.05961 6.7167C6.97159 6.72299 6.88592 6.74795 6.80829 6.78991C6.78156 6.81477 6.75347 6.83812 6.72415 6.85985C6.62034 6.94289 6.54385 7.00299 6.52855 7.28054C6.52517 7.34044 6.49868 7.39669 6.45466 7.43745C6.41063 7.47821 6.35251 7.50031 6.29253 7.49908Z" fill="#AF885A"/>
<path d="M7.064 9.49981C6.82963 9.50157 6.60411 9.41042 6.43679 9.2463C6.3763 9.18405 6.30393 9.13456 6.22398 9.10077C6.14402 9.06698 6.0581 9.04957 5.9713 9.04957C5.88449 9.04957 5.79857 9.06698 5.71862 9.10077C5.63866 9.13456 5.5663 9.18405 5.50581 9.2463C5.33788 9.40879 5.11336 9.49964 4.87969 9.49964C4.64601 9.49964 4.42149 9.40879 4.25357 9.2463C4.19293 9.18364 4.12023 9.13391 4.03985 9.10011C3.95947 9.0663 3.87308 9.04913 3.78589 9.04961C3.75604 9.04961 3.72741 9.03776 3.7063 9.01665C3.6852 8.99554 3.67334 8.96691 3.67334 8.93706C3.67334 8.90722 3.6852 8.87859 3.7063 8.85748C3.72741 8.83637 3.75604 8.82452 3.78589 8.82452C4.01992 8.8228 4.24509 8.91397 4.41201 9.07802C4.4725 9.14028 4.54487 9.18976 4.62482 9.22355C4.70478 9.25735 4.7907 9.27476 4.8775 9.27476C4.9643 9.27476 5.05022 9.25735 5.13018 9.22355C5.21013 9.18976 5.2825 9.14028 5.34299 9.07802C5.51092 8.91553 5.73544 8.82469 5.96911 8.82469C6.20279 8.82469 6.42731 8.91553 6.59523 9.07802C6.6562 9.13964 6.72878 9.18855 6.80877 9.22194C6.88877 9.25532 6.97459 9.27251 7.06127 9.27251C7.14795 9.27251 7.23377 9.25532 7.31377 9.22194C7.39376 9.18855 7.46634 9.13964 7.52731 9.07802C7.61035 8.9964 7.7087 8.93198 7.81672 8.88848C7.92473 8.84497 8.04027 8.82324 8.15671 8.82452C8.18656 8.82452 8.21518 8.83637 8.23629 8.85748C8.2574 8.87859 8.26925 8.90722 8.26925 8.93706C8.26925 8.96691 8.2574 8.99554 8.23629 9.01665C8.21518 9.03776 8.18656 9.04961 8.15671 9.04961C8.06988 9.04942 7.9839 9.06674 7.90392 9.10053C7.82394 9.13433 7.7516 9.18391 7.69121 9.2463C7.52403 9.41062 7.29842 9.50181 7.064 9.49981Z" fill="#AF885A"/>
<path d="M5.21509 8.8159C5.20092 8.81556 5.18735 8.81013 5.17685 8.8006C5.16677 8.7902 5.16113 8.77629 5.16113 8.76181C5.16113 8.74733 5.16677 8.73342 5.17685 8.72302C5.17685 8.72302 5.33529 8.56021 5.29268 8.41815C5.25213 8.32277 5.24418 8.21668 5.27006 8.11632C5.29594 8.01596 5.35421 7.92694 5.43582 7.86306C5.60628 7.70571 5.56367 7.39429 5.56257 7.39101C5.561 7.37672 5.56501 7.36237 5.57377 7.35097C5.58252 7.33957 5.59535 7.33199 5.60956 7.32982C5.62374 7.32794 5.63809 7.33169 5.64953 7.34027C5.66097 7.34885 5.66859 7.36158 5.67075 7.37571C5.67075 7.39101 5.72211 7.74614 5.51012 7.94283C5.44381 7.99304 5.39677 8.06452 5.37688 8.14528C5.35698 8.22605 5.36545 8.3112 5.40085 8.38647C5.46314 8.59189 5.26645 8.79186 5.2588 8.79951C5.25314 8.80524 5.24629 8.80967 5.23875 8.8125C5.2312 8.81533 5.22313 8.81649 5.21509 8.8159Z" fill="#AF885A"/>
<path d="M6.75216 8.8159C6.7374 8.81586 6.72325 8.80997 6.71283 8.79951C6.70518 8.79186 6.50849 8.59189 6.57077 8.38647C6.60618 8.3112 6.61465 8.22605 6.59475 8.14528C6.57486 8.06452 6.52782 7.99304 6.4615 7.94283C6.24952 7.74614 6.29869 7.39648 6.30088 7.37571C6.30304 7.36158 6.31066 7.34885 6.3221 7.34027C6.33354 7.33169 6.34789 7.32794 6.36207 7.32982C6.3764 7.33172 6.3894 7.33924 6.39821 7.35071C6.40701 7.36218 6.41091 7.37667 6.40905 7.39101C6.40905 7.39101 6.36644 7.70571 6.53581 7.86306C6.61761 7.9268 6.67609 8.01575 6.70217 8.11612C6.72825 8.21649 6.72047 8.32266 6.68004 8.41815C6.63634 8.56021 6.78931 8.72083 6.78931 8.72302C6.79444 8.7281 6.7985 8.73414 6.80127 8.7408C6.80405 8.74746 6.80548 8.7546 6.80548 8.76181C6.80548 8.76902 6.80405 8.77616 6.80127 8.78282C6.7985 8.78948 6.79444 8.79552 6.78931 8.8006C6.7791 8.80989 6.76595 8.8153 6.75216 8.8159Z" fill="#AF885A"/>
<path d="M5.62269 8.61933H5.60958C5.60257 8.61781 5.59596 8.61487 5.59014 8.6107C5.58432 8.60652 5.57941 8.6012 5.57572 8.59506C5.57204 8.58891 5.56965 8.58208 5.56871 8.57498C5.56776 8.56788 5.56828 8.56066 5.57024 8.55376C5.58117 8.50787 5.591 8.47509 5.59865 8.45105L5.60739 8.42264L5.59428 8.41281C5.58117 8.40188 5.56368 8.38767 5.54292 8.36801C5.44021 8.27294 5.5156 8.16039 5.56478 8.08609C5.594 8.04981 5.61422 8.00712 5.62378 7.96152C5.62378 7.8293 5.77676 7.41517 5.79424 7.37255C5.79613 7.36509 5.79956 7.35812 5.80433 7.35208C5.8091 7.34604 5.81509 7.34108 5.8219 7.33752C5.82872 7.33395 5.83621 7.33187 5.84389 7.3314C5.85157 7.33093 5.85926 7.33209 5.86646 7.3348C5.87366 7.33751 5.8802 7.34171 5.88567 7.34712C5.89113 7.35254 5.89539 7.35904 5.89817 7.36622C5.90094 7.37339 5.90217 7.38107 5.90178 7.38875C5.90138 7.39644 5.89937 7.40395 5.89586 7.4108C5.8237 7.5871 5.76916 7.77011 5.73305 7.95715C5.72539 8.02486 5.69846 8.08895 5.65547 8.14182C5.59537 8.23251 5.58881 8.25764 5.61722 8.28277C5.64564 8.30791 5.65219 8.31337 5.66312 8.3232C5.7265 8.37565 5.7265 8.40079 5.70355 8.47946C5.6959 8.50132 5.68716 8.53191 5.67623 8.57562C5.67371 8.58796 5.66701 8.59905 5.65725 8.60702C5.64749 8.61498 5.63528 8.61933 5.62269 8.61933Z" fill="#AF885A"/>
<path d="M5.94912 8.38626C5.9417 8.38629 5.93435 8.38475 5.92757 8.38174C5.92079 8.37872 5.91473 8.37431 5.90978 8.36877C5.90469 8.36379 5.90065 8.35784 5.89789 8.35127C5.89513 8.3447 5.89371 8.33765 5.89371 8.33053C5.89371 8.32341 5.89513 8.31635 5.89789 8.30979C5.90065 8.30322 5.90469 8.29727 5.90978 8.29229C5.96332 8.24311 5.95567 8.21033 5.91961 8.09341C5.90052 8.03685 5.88483 7.9792 5.87263 7.92077C5.83875 7.75577 5.84859 7.71315 5.89557 7.6607C5.90656 7.6494 5.91577 7.63651 5.92289 7.62246C5.93773 7.55078 5.92971 7.47625 5.89994 7.40938C5.89473 7.39576 5.89514 7.38062 5.90108 7.3673C5.90702 7.35398 5.91801 7.34357 5.93163 7.33835C5.94525 7.33314 5.96039 7.33355 5.97371 7.33949C5.98703 7.34543 5.99744 7.35642 6.00266 7.37004C6.04341 7.46547 6.04959 7.57213 6.02014 7.67163C6.00865 7.69412 5.99433 7.71505 5.97753 7.73391C5.96114 7.7514 5.9513 7.76232 5.97753 7.89891C5.98936 7.95352 6.00395 8.0075 6.02124 8.06063C6.05729 8.1699 6.08789 8.27917 5.9819 8.37205C5.97302 8.38056 5.96139 8.3856 5.94912 8.38626Z" fill="#AF885A"/>
<path d="M6.29237 8.68664C6.28287 8.68669 6.2735 8.68444 6.26506 8.68009C6.2526 8.67257 6.2435 8.66056 6.23964 8.64653C6.23578 8.6325 6.23744 8.61753 6.2443 8.60469C6.2586 8.5743 6.2657 8.54102 6.26506 8.50744C6.26884 8.42704 6.28659 8.34791 6.31751 8.2736C6.36449 8.16433 6.36449 8.16433 6.29675 8.10095C6.28363 8.08784 6.26724 8.07473 6.24976 8.05834C6.09459 7.91301 6.11863 7.4344 6.12191 7.37977C6.12202 7.37249 6.12365 7.36531 6.12669 7.35869C6.12973 7.35208 6.13411 7.34616 6.13956 7.34133C6.145 7.3365 6.1514 7.33286 6.15833 7.33063C6.16526 7.32841 6.17258 7.32765 6.17983 7.32841C6.19413 7.32953 6.20742 7.33623 6.21683 7.34707C6.22623 7.3579 6.23099 7.372 6.23009 7.38632C6.21916 7.57099 6.23555 7.89443 6.32406 7.97748L6.36996 8.019C6.48906 8.12827 6.48688 8.15231 6.41804 8.31512C6.39193 8.37911 6.37714 8.44714 6.37433 8.51618C6.37392 8.56596 6.36195 8.61496 6.33936 8.65932C6.33459 8.66758 6.32775 8.67445 6.31951 8.67924C6.31126 8.68403 6.30191 8.68658 6.29237 8.68664Z" fill="#AF885A"/>
<path d="M7.53592 5.1323C7.41136 5.1323 7.31738 5.06783 7.31738 4.9837C7.31738 4.89956 7.41136 4.83618 7.53592 4.83618C7.66049 4.83618 7.75446 4.89956 7.75446 4.9837C7.75446 5.06783 7.66049 5.1323 7.53592 5.1323ZM7.53592 4.94545C7.46708 4.94545 7.42665 4.97386 7.42665 4.9837C7.42665 4.99353 7.46708 5.02303 7.53592 5.02303C7.60476 5.02303 7.64519 4.99353 7.64519 4.9837C7.64519 4.97386 7.61023 4.94545 7.53592 4.94545Z" fill="#AF885A"/>
<path d="M6.51737 4.85569C6.3928 4.85569 6.29883 4.79232 6.29883 4.70818C6.29883 4.62404 6.3928 4.55957 6.51737 4.55957C6.64194 4.55957 6.73591 4.62295 6.73591 4.70818C6.73591 4.79341 6.63757 4.85569 6.51737 4.85569ZM6.51737 4.66884C6.44853 4.66884 6.4081 4.69725 6.4081 4.70818C6.4081 4.71911 6.44853 4.74642 6.51737 4.74642C6.58621 4.74642 6.62664 4.71801 6.62664 4.70818C6.62664 4.69834 6.58075 4.66775 6.51737 4.66775V4.66884Z" fill="#AF885A"/>
<path d="M5.32979 4.94529C5.17135 4.94529 5.05225 4.86661 5.05225 4.7628C5.05225 4.659 5.17135 4.58032 5.32979 4.58032C5.48824 4.58032 5.60734 4.659 5.60734 4.7628C5.60734 4.86661 5.48824 4.94529 5.32979 4.94529ZM5.32979 4.68959C5.22817 4.68959 5.16152 4.7333 5.16152 4.7628C5.16152 4.79231 5.22817 4.83602 5.32979 4.83602C5.43141 4.83602 5.49807 4.79121 5.49807 4.7628C5.49807 4.73439 5.43141 4.68959 5.32979 4.68959Z" fill="#AF885A"/>
<path d="M4.29023 5.06349C4.18096 5.06349 4.1001 4.99902 4.1001 4.91816C4.1001 4.8373 4.18314 4.77393 4.29023 4.77393C4.39731 4.77393 4.48145 4.8373 4.48145 4.91816C4.48145 4.99902 4.39731 5.06349 4.29023 5.06349ZM4.29023 4.8832C4.23996 4.8832 4.20937 4.90724 4.20937 4.91816C4.20937 4.92909 4.23996 4.95422 4.29023 4.95422C4.34049 4.95422 4.37218 4.92909 4.37218 4.91816C4.37218 4.90724 4.34159 4.8832 4.29023 4.8832Z" fill="#AF885A"/>
<path d="M4.71481 4.9902C4.69626 4.99088 4.67776 4.98774 4.66046 4.98097C4.64317 4.97421 4.62745 4.96396 4.61429 4.95086C4.60224 4.93827 4.59291 4.92333 4.58689 4.90697C4.58088 4.89062 4.5783 4.87319 4.57932 4.8558C4.58177 4.82917 4.58963 4.80333 4.6024 4.77985C4.61518 4.75636 4.63261 4.73573 4.65362 4.71921C4.6849 4.68762 4.72673 4.66871 4.7711 4.66609C4.81547 4.66346 4.85924 4.67732 4.89402 4.705C4.90607 4.71759 4.91539 4.73253 4.92141 4.74889C4.92743 4.76525 4.93 4.78267 4.92898 4.80007C4.92653 4.82669 4.91868 4.85253 4.9059 4.87602C4.89313 4.8995 4.8757 4.92013 4.85468 4.93666C4.81582 4.97042 4.76629 4.98938 4.71481 4.9902ZM4.79349 4.77166C4.76754 4.77252 4.74275 4.78259 4.72356 4.80007C4.70469 4.81398 4.69212 4.83481 4.68859 4.85798C4.68859 4.86781 4.68859 4.87 4.68859 4.87109C4.68859 4.87219 4.74322 4.88093 4.78147 4.84924C4.80033 4.83533 4.81291 4.8145 4.81644 4.79133C4.81644 4.78258 4.81644 4.77931 4.81644 4.77821C4.80941 4.77446 4.80129 4.77329 4.79349 4.77493V4.77166Z" fill="#AF885A"/>
<path d="M5.59082 5.33215C5.53683 5.33028 5.48545 5.30848 5.44659 5.27096C5.42649 5.25346 5.4102 5.23201 5.39873 5.20795C5.38726 5.18389 5.38087 5.15773 5.37993 5.13109C5.37944 5.11369 5.3827 5.0964 5.38949 5.08037C5.39627 5.06434 5.40643 5.04996 5.41927 5.03821C5.45516 5.01196 5.49954 5 5.54377 5.00464C5.58799 5.00929 5.62891 5.03021 5.65857 5.06334C5.67867 5.08085 5.69496 5.10229 5.70643 5.12635C5.71789 5.15041 5.72429 5.17657 5.72523 5.20321C5.72573 5.22077 5.72248 5.23824 5.7157 5.25444C5.70892 5.27065 5.69875 5.28522 5.68589 5.29718C5.65968 5.32031 5.62577 5.33278 5.59082 5.33215ZM5.49357 5.11361C5.49267 5.11568 5.4922 5.11791 5.4922 5.12016C5.4922 5.12242 5.49267 5.12465 5.49357 5.12672C5.49458 5.13835 5.4979 5.14965 5.50334 5.15998C5.50878 5.1703 5.51623 5.17942 5.52526 5.18682C5.56023 5.2196 5.60284 5.22397 5.61596 5.21195C5.61686 5.20988 5.61732 5.20765 5.61732 5.2054C5.61732 5.20314 5.61686 5.20091 5.61596 5.19884C5.61495 5.18721 5.61163 5.17591 5.60619 5.16559C5.60075 5.15526 5.59329 5.14614 5.58427 5.13874C5.54821 5.11033 5.50559 5.10596 5.49357 5.11798V5.11361Z" fill="#AF885A"/>
<path d="M6.43454 5.17602C6.38055 5.17415 6.32916 5.15235 6.2903 5.11483C6.27023 5.09753 6.25395 5.07628 6.24248 5.0524C6.23101 5.02852 6.2246 5.00253 6.22364 4.97605C6.22341 4.95853 6.22678 4.94115 6.23355 4.92498C6.24032 4.90881 6.25033 4.89421 6.26298 4.88208C6.29896 4.85607 6.34328 4.84425 6.38744 4.84889C6.4316 4.85352 6.47249 4.87429 6.50228 4.90721C6.52228 4.9248 6.53851 4.94626 6.54996 4.97031C6.56142 4.99435 6.56788 5.02047 6.56894 5.04708C6.56944 5.06464 6.5662 5.08211 6.55941 5.09831C6.55263 5.11452 6.54247 5.12909 6.5296 5.14105C6.50339 5.16418 6.46948 5.17665 6.43454 5.17602ZM6.33729 4.95748C6.33629 4.95971 6.33578 4.96213 6.33578 4.96458C6.33578 4.96703 6.33629 4.96945 6.33729 4.97168C6.33982 4.99471 6.35118 5.01586 6.36897 5.03069C6.40503 5.06347 6.44765 5.06784 6.45967 5.05691C6.46066 5.05468 6.46118 5.05226 6.46118 5.04981C6.46118 5.04736 6.46066 5.04494 6.45967 5.04271C6.45864 5.03124 6.45531 5.0201 6.44986 5.00996C6.44442 4.99982 6.43697 4.99089 6.42798 4.9837C6.39192 4.9542 6.3493 4.95092 6.33729 4.96513V4.95748Z" fill="#AF885A"/>
<path d="M7.01815 5.30705C6.96431 5.30547 6.91294 5.28407 6.87391 5.24695C6.85381 5.22938 6.83745 5.20794 6.82581 5.18391C6.81417 5.15988 6.80749 5.13375 6.80616 5.10708C6.80593 5.08956 6.8093 5.07217 6.81607 5.05601C6.82284 5.03984 6.83285 5.02524 6.8455 5.01311C6.88178 4.98715 6.92636 4.97548 6.97071 4.98032C7.01505 4.98516 7.05606 5.00617 7.0859 5.03933C7.10664 5.05724 7.12332 5.07937 7.13482 5.10425C7.14631 5.12912 7.15236 5.15617 7.15255 5.18357C7.15279 5.20109 7.14941 5.21848 7.14265 5.23465C7.13588 5.25081 7.12586 5.26541 7.11321 5.27754C7.08647 5.29918 7.05245 5.30974 7.01815 5.30705ZM6.94057 5.08851C6.93325 5.08818 6.92601 5.09008 6.91981 5.09397C6.91881 5.09621 6.9183 5.09863 6.9183 5.10107C6.9183 5.10352 6.91881 5.10594 6.91981 5.10817C6.92109 5.11969 6.92464 5.13084 6.93027 5.14097C6.9359 5.1511 6.94348 5.16001 6.95259 5.16718C6.98755 5.19996 7.03017 5.20433 7.04328 5.19341C7.04427 5.19117 7.04479 5.18875 7.04479 5.1863C7.04479 5.18386 7.04427 5.18144 7.04328 5.1792C7.04074 5.15618 7.02939 5.13503 7.01159 5.12019C6.99277 5.10088 6.96748 5.0892 6.94057 5.08741V5.08851Z" fill="#AF885A"/>
<path d="M5.02624 5.22172C4.99725 5.22369 4.96834 5.21691 4.94324 5.20228C4.91813 5.18765 4.898 5.16583 4.88542 5.13964C4.87284 5.11345 4.8684 5.08409 4.87267 5.05535C4.87695 5.02661 4.88974 4.99981 4.90939 4.97842C4.92905 4.95702 4.95466 4.942 4.98294 4.93531C5.01121 4.92861 5.04084 4.93055 5.068 4.94086C5.09517 4.95117 5.11861 4.96939 5.13532 4.99316C5.15203 5.01693 5.16123 5.04516 5.16173 5.07421C5.16276 5.09285 5.16005 5.1115 5.15375 5.12908C5.14746 5.14665 5.13771 5.16279 5.12509 5.17653C5.11246 5.19028 5.09721 5.20136 5.08023 5.20912C5.06325 5.21689 5.04489 5.22117 5.02624 5.22172ZM5.02624 5.04143C5.01312 5.04143 5.0011 5.05782 5.0011 5.07749C5.0011 5.09716 5.01312 5.11245 5.02624 5.11245C5.03935 5.11245 5.05246 5.09606 5.05246 5.07749C5.05246 5.05891 5.04044 5.04143 5.02624 5.04143Z" fill="#AF885A"/>
<path d="M7.13481 4.94455C7.11155 4.94393 7.0886 4.93912 7.06706 4.93035C7.04744 4.92256 7.02959 4.9109 7.01458 4.89607C6.99956 4.88124 6.98768 4.86354 6.97964 4.84402C6.97342 4.82933 6.97021 4.81354 6.97021 4.79758C6.97021 4.78163 6.97342 4.76584 6.97964 4.75114C6.99808 4.71829 7.02863 4.69396 7.06477 4.68334C7.10091 4.67272 7.13978 4.67666 7.17305 4.69432C7.19286 4.70177 7.21089 4.71331 7.22595 4.72818C7.24101 4.74305 7.25277 4.76093 7.26047 4.78065C7.26729 4.79518 7.27083 4.81103 7.27083 4.82709C7.27083 4.84314 7.26729 4.859 7.26047 4.87353C7.24834 4.89601 7.23011 4.9146 7.20788 4.92717C7.18565 4.93973 7.16032 4.94576 7.13481 4.94455ZM7.10858 4.78939C7.09438 4.78939 7.08454 4.78939 7.08236 4.79922C7.08397 4.80621 7.08732 4.81268 7.09209 4.81802C7.09687 4.82337 7.10291 4.82743 7.10967 4.82982C7.11736 4.83467 7.12626 4.83725 7.13535 4.83725C7.14444 4.83725 7.15335 4.83467 7.16103 4.82982C7.15942 4.82283 7.15607 4.81637 7.15129 4.81102C7.14652 4.80567 7.14047 4.80161 7.13371 4.79922C7.12617 4.79412 7.11759 4.79076 7.10858 4.78939Z" fill="#AF885A"/>
<path d="M9.06773 10.5376H3.84023C3.81125 10.5376 3.78345 10.5261 3.76296 10.5056C3.74247 10.4851 3.73096 10.4573 3.73096 10.4284C3.73096 10.3994 3.74247 10.3716 3.76296 10.3511C3.78345 10.3306 3.81125 10.3191 3.84023 10.3191H9.06773C9.09671 10.3191 9.1245 10.3306 9.14499 10.3511C9.16548 10.3716 9.177 10.3994 9.177 10.4284C9.177 10.4573 9.16548 10.4851 9.14499 10.5056C9.1245 10.5261 9.09671 10.5376 9.06773 10.5376Z" fill="#AF885A"/>
<path d="M3.53642 10.5376H3.09169C3.06271 10.5376 3.03492 10.5261 3.01443 10.5056C2.99393 10.4851 2.98242 10.4573 2.98242 10.4284C2.98242 10.3994 2.99393 10.3716 3.01443 10.3511C3.03492 10.3306 3.06271 10.3191 3.09169 10.3191H3.53642C3.5654 10.3191 3.5932 10.3306 3.61369 10.3511C3.63418 10.3716 3.64569 10.3994 3.64569 10.4284C3.64569 10.4573 3.63418 10.4851 3.61369 10.5056C3.5932 10.5261 3.5654 10.5376 3.53642 10.5376Z" fill="#AF885A"/>
<path d="M2.72801 10.5376H2.4745C2.44552 10.5376 2.41773 10.5261 2.39724 10.5056C2.37675 10.4851 2.36523 10.4573 2.36523 10.4284C2.36523 10.3994 2.37675 10.3716 2.39724 10.3511C2.41773 10.3306 2.44552 10.3191 2.4745 10.3191H2.72692C2.7559 10.3191 2.78369 10.3306 2.80419 10.3511C2.82468 10.3716 2.83619 10.3994 2.83619 10.4284C2.83619 10.4573 2.82468 10.4851 2.80419 10.5056C2.78369 10.5261 2.7559 10.5376 2.72692 10.5376H2.72801Z" fill="#AF885A"/>
</g>
<defs>
<clipPath id="clip0_166_219">
<rect width="10.49" height="10.49" fill="white" transform="translate(0.726074 0.485107)"/>
</clipPath>
</defs>
</svg>
