<svg width="11" height="12" viewBox="0 0 11 12" fill="none" xmlns="http://www.w3.org/2000/svg">
<g clip-path="url(#clip0_166_201)">
<path d="M5.42564 7.10397C5.29452 7.10397 5.2071 7.01655 5.2071 6.88543C5.2071 6.7543 5.29452 6.66689 5.42564 6.66689H5.86272C5.99385 6.66689 6.08127 6.57947 6.08127 6.44835C6.08127 6.31722 5.99385 6.22981 5.86272 6.22981H5.64418V6.01127C5.64418 5.88014 5.55677 5.79272 5.42564 5.79272C5.29452 5.79272 5.2071 5.88014 5.2071 6.01127V6.27351C4.94485 6.36093 4.77002 6.62318 4.77002 6.88543C4.77002 7.23509 5.07598 7.54105 5.42564 7.54105C5.55677 7.54105 5.64418 7.62847 5.64418 7.75959C5.64418 7.89072 5.55677 7.97813 5.42564 7.97813H4.98856C4.85744 7.97813 4.77002 8.06555 4.77002 8.19667C4.77002 8.3278 4.85744 8.41522 4.98856 8.41522H5.2071V8.63376C5.2071 8.76488 5.29452 8.8523 5.42564 8.8523C5.55677 8.8523 5.64418 8.76488 5.64418 8.63376V8.37151C5.90643 8.28409 6.08127 8.02184 6.08127 7.75959C6.08127 7.40993 5.77531 7.10397 5.42564 7.10397Z" fill="#AF885A"/>
<path d="M9.57813 8.85209C9.22847 8.85209 8.8788 9.02693 8.61655 9.24547L7.52385 8.50243C7.69868 8.15276 7.82981 7.75939 7.82981 7.32231C7.82981 7.06006 7.7861 6.79781 7.69868 6.53556L8.48543 6.18589C8.70397 6.44814 9.00993 6.66668 9.35959 6.66668C9.97151 6.66668 10.4523 6.18589 10.4523 5.57398C10.4523 4.96206 9.97151 4.48127 9.35959 4.48127C9.31588 4.48127 9.22847 4.48127 9.18476 4.48127L8.92251 3.86936C9.05363 3.73823 9.14105 3.5634 9.14105 3.38857C9.14105 3.0389 8.83509 2.73295 8.48543 2.73295C8.13576 2.73295 7.82981 3.0389 7.82981 3.38857C7.82981 3.73823 8.13576 4.04419 8.48543 4.04419H8.52914L8.79139 4.65611C8.48543 4.87465 8.26689 5.1806 8.26689 5.57398C8.26689 5.6614 8.26689 5.74881 8.3106 5.79252L7.52385 6.14219C7.13047 5.39915 6.34373 4.91836 5.42586 4.91836C4.77023 4.91836 4.20203 5.1806 3.76494 5.57398L3.19674 5.09319C3.37157 4.87465 3.45899 4.56869 3.45899 4.26273C3.45899 4.00048 3.37157 3.78194 3.28415 3.5634L4.24573 2.86407C4.42057 3.0389 4.68282 3.17003 4.98877 3.17003C5.55698 3.17003 6.03777 2.68924 6.08148 2.12103L7.04306 1.9462C7.13047 2.16474 7.34902 2.29586 7.61126 2.29586C7.96093 2.29586 8.26689 1.98991 8.26689 1.64024C8.26689 1.29058 7.96093 0.984619 7.61126 0.984619C7.30531 0.984619 7.04306 1.20316 6.95564 1.50912L5.99406 1.68395C5.86294 1.29058 5.46956 0.984619 4.98877 0.984619C4.37686 0.984619 3.89607 1.46541 3.89607 2.07732C3.89607 2.25216 3.93978 2.38328 3.98348 2.51441L3.02191 3.21374C2.75966 2.90778 2.36628 2.73295 1.9292 2.73295C1.09875 2.73295 0.399414 3.43228 0.399414 4.26273C0.399414 5.09319 1.09875 5.79252 1.9292 5.79252C2.32257 5.79252 2.67224 5.6614 2.93449 5.39915L3.5027 5.87994C3.19674 6.27331 3.02191 6.7541 3.02191 7.2786C3.02191 7.75939 3.15303 8.15276 3.37157 8.54613L2.62853 9.11434C2.4537 8.93951 2.19145 8.85209 1.88549 8.85209C1.31729 8.85209 0.836496 9.33288 0.836496 9.9448C0.836496 10.5567 1.31729 11.0375 1.9292 11.0375C2.54112 11.0375 3.02191 10.5567 3.02191 9.9448C3.02191 9.76996 2.9782 9.63884 2.93449 9.46401L3.67753 8.8958C4.11461 9.37659 4.77023 9.68255 5.46956 9.68255C6.2126 9.68255 6.86823 9.33288 7.30531 8.80838L8.39801 9.55142C8.3106 9.76996 8.26689 9.98851 8.26689 10.1633C8.26689 10.9064 8.83509 11.4746 9.57813 11.4746C10.3212 11.4746 10.8894 10.9064 10.8894 10.1633C10.8894 9.4203 10.3212 8.85209 9.57813 8.85209ZM8.26689 3.38857C8.26689 3.25744 8.3543 3.17003 8.48543 3.17003C8.61655 3.17003 8.70397 3.25744 8.70397 3.38857C8.70397 3.51969 8.61655 3.60711 8.48543 3.60711C8.3543 3.60711 8.26689 3.51969 8.26689 3.38857ZM9.35959 4.91836C9.70926 4.91836 10.0152 5.22431 10.0152 5.57398C10.0152 5.92364 9.70926 6.2296 9.35959 6.2296C9.00993 6.2296 8.70397 5.92364 8.70397 5.57398C8.70397 5.22431 9.00993 4.91836 9.35959 4.91836ZM7.61126 1.4217C7.74239 1.4217 7.82981 1.50912 7.82981 1.64024C7.82981 1.77137 7.74239 1.85878 7.61126 1.85878C7.48014 1.85878 7.39272 1.77137 7.39272 1.64024C7.39272 1.50912 7.48014 1.4217 7.61126 1.4217ZM4.98877 1.4217C5.33844 1.4217 5.6444 1.72766 5.6444 2.07732C5.6444 2.42699 5.33844 2.73295 4.98877 2.73295C4.63911 2.73295 4.33315 2.42699 4.33315 2.07732C4.33315 1.72766 4.63911 1.4217 4.98877 1.4217ZM1.9292 10.6004C1.57954 10.6004 1.27358 10.2945 1.27358 9.9448C1.27358 9.59513 1.57954 9.28917 1.9292 9.28917C2.27887 9.28917 2.58482 9.59513 2.58482 9.9448C2.58482 10.2945 2.27887 10.6004 1.9292 10.6004ZM1.9292 5.35544C1.31729 5.35544 0.836496 4.87465 0.836496 4.26273C0.836496 3.65082 1.31729 3.17003 1.9292 3.17003C2.54112 3.17003 3.02191 3.65082 3.02191 4.26273C3.02191 4.87465 2.54112 5.35544 1.9292 5.35544ZM5.42586 9.28917C4.33315 9.28917 3.45899 8.41501 3.45899 7.32231C3.45899 6.2296 4.33315 5.35544 5.42586 5.35544C6.51856 5.35544 7.39272 6.2296 7.39272 7.32231C7.39272 8.41501 6.51856 9.28917 5.42586 9.28917ZM9.57813 11.0375C9.09734 11.0375 8.70397 10.6441 8.70397 10.1633C8.70397 9.68255 9.09734 9.28917 9.57813 9.28917C10.0589 9.28917 10.4523 9.68255 10.4523 10.1633C10.4523 10.6441 10.0589 11.0375 9.57813 11.0375Z" fill="#AF885A"/>
</g>
<defs>
<clipPath id="clip0_166_201">
<rect width="10.49" height="10.49" fill="white" transform="translate(0.399414 0.984619)"/>
</clipPath>
</defs>
</svg>
