<svg width="12" height="12" viewBox="0 0 12 12" fill="none" xmlns="http://www.w3.org/2000/svg">
<path d="M9.50767 2.13859H10.1371C10.195 2.13859 10.242 2.18554 10.242 2.24349V2.87289C10.242 3.56811 9.67839 4.13169 8.98317 4.13169H7.82927C7.13406 4.13169 6.57048 3.56811 6.57048 2.87289V2.24349C6.57048 2.18554 6.61743 2.13859 6.67538 2.13859H7.30478C7.42065 2.13859 7.51457 2.04466 7.51457 1.92879C7.51457 1.81292 7.42065 1.71899 7.30478 1.71899H6.67538C6.38569 1.71899 6.15088 1.95381 6.15088 2.24349V2.87289C6.15088 3.79984 6.90233 4.55128 7.82927 4.55128H8.98317C9.91012 4.55128 10.6616 3.79984 10.6616 2.87289V2.24349C10.6616 1.95381 10.4267 1.71899 10.1371 1.71899H9.50767C9.3918 1.71899 9.29787 1.81292 9.29787 1.92879C9.29787 2.04466 9.3918 2.13859 9.50767 2.13859Z" fill="#AF885A"/>
<path d="M8.24879 4.49862V8.84146C8.24879 9.12945 8.01228 9.36596 7.72429 9.36596H6.88509C6.76922 9.36596 6.67529 9.45989 6.67529 9.57576C6.67529 9.69163 6.76922 9.78556 6.88509 9.78556H7.72429C8.24402 9.78556 8.66839 9.3612 8.66839 8.84146V4.49862C8.66839 4.38275 8.57446 4.28882 8.45859 4.28882C8.34272 4.28882 8.24879 4.38275 8.24879 4.49862Z" fill="#AF885A"/>
<path d="M6.67543 9.53391C6.67543 9.09937 6.32322 8.74716 5.88869 8.74716C5.45415 8.74716 5.10194 9.09937 5.10194 9.53391C5.10194 9.96844 5.45415 10.3207 5.88869 10.3207C6.32322 10.3207 6.67543 9.96844 6.67543 9.53391ZM7.09503 9.53391C7.09503 10.2002 6.55496 10.7403 5.88869 10.7403C5.22241 10.7403 4.68234 10.2002 4.68234 9.53391C4.68234 8.86763 5.22241 8.32756 5.88869 8.32756C6.55496 8.32756 7.09503 8.86763 7.09503 9.53391ZM5.83469 4.56171C6.40817 5.1352 6.40817 6.06506 5.83469 6.63867L4.27693 8.19632C4.07216 8.40109 3.74002 8.40109 3.53525 8.19632L1.97747 6.63864C1.40399 6.06505 1.40399 5.1352 1.9775 4.56169C2.50391 4.03539 3.33038 3.9921 3.90608 4.43184C4.48178 3.9921 5.30825 4.03539 5.83469 4.56171ZM3.75774 4.85841C3.34811 4.44878 2.68391 4.44878 2.27419 4.85841C1.86456 5.26804 1.86456 5.93224 2.27419 6.34195L3.83195 7.89961C3.87285 7.94052 3.93932 7.94052 3.98023 7.89961L5.53797 6.34198C5.94762 5.93224 5.94762 5.26803 5.538 4.85842C5.12827 4.44877 4.46406 4.44877 4.05444 4.8584C3.97251 4.94034 3.83967 4.94034 3.75774 4.8584V4.85841Z" fill="#AF885A"/>
</svg>
