<svg width="12" height="11" viewBox="0 0 12 11" fill="none" xmlns="http://www.w3.org/2000/svg">
<g clip-path="url(#clip0_166_184)">
<path d="M9.04729 2.92916L8.32943 1.83209V0.485352H4.13344V1.83191L3.42572 2.91151L3.4154 2.92916C3.3133 3.13337 3.25928 3.36205 3.25928 3.59056V7.87029C3.25928 8.09879 3.3133 8.32747 3.41558 8.53168L4.13344 9.62858V10.9753H8.32943V9.62875L9.03715 8.54916L9.04746 8.5315C9.14957 8.3273 9.20359 8.09862 9.20359 7.87011V3.59056C9.20359 3.36205 9.14957 3.13337 9.04729 2.92916ZM4.48311 0.835017H7.97976V1.70918H4.48311V0.835017ZM7.97976 10.6257H4.48311V9.75149H7.97976V10.6257ZM8.85392 7.87011C8.85392 8.04127 8.81406 8.21261 8.73906 8.36629L8.06018 9.40182H4.40268L3.72381 8.36629C3.6488 8.21261 3.60894 8.04127 3.60894 7.87011V3.59056C3.60894 3.41939 3.6488 3.24806 3.72381 3.09438L4.40268 2.05885H8.06018L8.73906 3.09438C8.81406 3.24806 8.85392 3.41939 8.85392 3.59056V7.87011Z" fill="#AF885A"/>
<path d="M7.90653 3.10767H4.55709C4.22718 3.10767 3.95898 3.37586 3.95898 3.70577V7.40488C3.95898 7.73479 4.22718 8.00298 4.55709 8.00298H7.90653C8.23644 8.00298 8.50463 7.73479 8.50463 7.40488V3.70577C8.50463 3.37586 8.23644 3.10767 7.90653 3.10767ZM8.15497 7.40488C8.15497 7.54177 8.04343 7.65332 7.90653 7.65332H4.55709C4.42019 7.65332 4.30865 7.54177 4.30865 7.40488V3.70577C4.30865 3.56887 4.42019 3.45733 4.55709 3.45733H7.90653C8.04343 3.45733 8.15497 3.56887 8.15497 3.70577V7.40488Z" fill="#AF885A"/>
<path d="M6.48591 8.17773H5.97715C5.82819 8.17773 5.70703 8.29889 5.70703 8.44785V8.95661C5.70703 9.10557 5.82819 9.22673 5.97715 9.22673H6.48591C6.63487 9.22673 6.75603 9.10557 6.75603 8.95661V8.44785C6.75603 8.29889 6.63487 8.17773 6.48591 8.17773ZM6.40636 8.87707H6.0567V8.5274H6.40636V8.87707Z" fill="#AF885A"/>
<path d="M4.83308 4.85617C4.87784 4.85617 4.92259 4.83904 4.95669 4.80494L5.65602 4.10561C5.72438 4.03725 5.72438 3.92676 5.65602 3.8584C5.58766 3.79004 5.47716 3.79004 5.4088 3.8584L4.70947 4.55773C4.64111 4.62609 4.64111 4.73658 4.70947 4.80494C4.74357 4.83904 4.78832 4.85617 4.83308 4.85617Z" fill="#AF885A"/>
<path d="M4.83308 5.72989C4.87784 5.72989 4.92259 5.71276 4.95669 5.67867L5.30635 5.329C5.37471 5.26064 5.37471 5.15015 5.30635 5.08179C5.23799 5.01343 5.1275 5.01343 5.05914 5.08179L4.70947 5.43145C4.64111 5.49981 4.64111 5.61031 4.70947 5.67867C4.74357 5.71276 4.78832 5.72989 4.83308 5.72989Z" fill="#AF885A"/>
<path d="M5.40812 4.73204C5.37648 4.76508 5.35742 4.80879 5.35742 4.85617C5.35742 4.90337 5.37491 4.94708 5.40812 4.9803C5.44117 5.01334 5.4868 5.031 5.53225 5.031C5.57771 5.031 5.62317 5.01334 5.65639 4.9803C5.68786 4.94708 5.70709 4.90162 5.70709 4.85617C5.70709 4.81071 5.68786 4.76508 5.65639 4.73204C5.58995 4.66735 5.47631 4.6656 5.40812 4.73204Z" fill="#AF885A"/>
<path d="M5.7583 4.63011C5.79239 4.6642 5.83715 4.68134 5.88191 4.68134C5.92667 4.68134 5.97142 4.6642 6.00551 4.63011L6.53001 4.10561C6.59837 4.03725 6.59837 3.92676 6.53001 3.8584C6.46165 3.79004 6.35116 3.79004 6.2828 3.8584L5.7583 4.3829C5.68994 4.45126 5.68994 4.56175 5.7583 4.63011Z" fill="#AF885A"/>
<path d="M6.28297 4.73242L4.70947 6.30592C4.64111 6.37428 4.64111 6.48477 4.70947 6.55313C4.74357 6.58722 4.78832 6.60436 4.83308 6.60436C4.87784 6.60436 4.92259 6.58722 4.95669 6.55313L6.53018 4.97964C6.59854 4.91128 6.59854 4.80078 6.53018 4.73242C6.46182 4.66406 6.35133 4.66406 6.28297 4.73242Z" fill="#AF885A"/>
<path d="M6.63176 4.38228C6.60011 4.41533 6.58105 4.46096 6.58105 4.50642C6.58105 4.55187 6.60011 4.59733 6.63176 4.63055C6.6648 4.66202 6.71043 4.68125 6.75589 4.68125C6.80134 4.68125 6.8468 4.66202 6.88002 4.63055C6.91149 4.59733 6.93072 4.55187 6.93072 4.50642C6.93072 4.46096 6.91149 4.41533 6.88002 4.38403C6.81533 4.3176 6.69644 4.3176 6.63176 4.38228Z" fill="#AF885A"/>
<path d="M7.15725 3.8584L6.98242 4.03323C6.91406 4.10159 6.91406 4.21209 6.98242 4.28045C7.01651 4.31454 7.06127 4.33167 7.10603 4.33167C7.15079 4.33167 7.19554 4.31454 7.22964 4.28045L7.40447 4.10561C7.47283 4.03725 7.47283 3.92676 7.40447 3.8584C7.33611 3.79004 7.22561 3.79004 7.15725 3.8584Z" fill="#AF885A"/>
</g>
<defs>
<clipPath id="clip0_166_184">
<rect width="10.49" height="10.49" fill="white" transform="translate(0.986328 0.485352)"/>
</clipPath>
</defs>
</svg>
